<svg width="393" height="852" viewBox="0 0 393 852" fill="none" xmlns="http://www.w3.org/2000/svg">
<g clip-path="url(#clip0_1381_12133)">
<rect width="393" height="852" fill="#17261F"/>
<path d="M55.3358 758.607C54.866 770.575 43.019 781.174 30.2517 780.293C21.7321 767.055 30.8523 748.175 47.165 746C49.0684 747.994 51.5919 749.542 54.28 750.317C55.1566 752.983 55.5005 755.821 55.3407 758.607H55.3358Z" fill="#D9D2B0" stroke="#17261E" stroke-miterlimit="10"/>
<path d="M107.047 839.084C95.9477 847.461 87.6334 857.967 72.1891 852.255C74.1965 838.581 88.4296 829.991 100.235 832.292C101.654 835.185 104.067 837.608 107.05 839.078L107.047 839.084Z" fill="#D9D2B0" stroke="#17261E" stroke-miterlimit="10"/>
<path d="M295.151 813.934C281.415 811.769 268.082 813.087 261.463 798.009C272.693 789.954 288.759 794.226 295.305 804.316C294.21 807.346 294.143 810.765 295.158 813.932L295.151 813.934Z" fill="#D9D2B0" stroke="#17261E" stroke-miterlimit="10"/>
<g>
<path d="M402.784 812.818C408.152 813.231 413.781 810.703 417.071 806.384C424.6 820.65 430.684 832.704 415.499 845.999C401.315 841.722 395.457 825.267 402.784 812.818Z" fill="#D9D2B0"/>
</g>
<path d="M402.784 812.818C408.152 813.231 413.781 810.703 417.071 806.384C424.6 820.65 430.684 832.704 415.499 845.999C401.315 841.722 395.457 825.267 402.784 812.818Z" stroke="#17261E" stroke-miterlimit="10"/>
</g>
<defs>
<clipPath id="clip0_1381_12133">
<rect width="393" height="852" fill="white"/>
</clipPath>
</defs>
</svg>
