<svg width="21" height="20" viewBox="0 0 21 20" fill="none" xmlns="http://www.w3.org/2000/svg">
<path fill-rule="evenodd" clip-rule="evenodd" d="M16.4167 15.9667C16.9083 15.2167 17.0917 14.8334 17.4667 13.9917C14.7 12.9417 14.2583 9 16.9917 7.49167C16.1583 6.44167 14.9833 5.83334 13.875 5.83334C13.075 5.83334 12.525 6.04169 12.0333 6.23335C11.6167 6.39169 11.2417 6.53334 10.775 6.53334C10.275 6.53334 9.83333 6.37502 9.36666 6.20835C8.85833 6.02502 8.32499 5.83334 7.65832 5.83334C6.41666 5.83334 5.09166 6.59168 4.24999 7.89168C3.06666 9.72501 3.275 13.1583 5.18333 16.0917C5.86666 17.1417 6.78333 18.3167 7.975 18.3333C8.475 18.3417 8.79999 18.1917 9.15833 18.0334C9.56666 17.85 10.0083 17.65 10.7833 17.65C11.5583 17.6417 11.9917 17.85 12.4 18.0334C12.75 18.1917 13.0667 18.3417 13.5583 18.3333C14.7667 18.3167 15.7333 17.0167 16.4167 15.9667Z" fill="#D9D2B0"/>
<path fill-rule="evenodd" clip-rule="evenodd" d="M13.7 1.66666C13.8333 2.58332 13.4583 3.49167 12.9667 4.125C12.4417 4.80833 11.525 5.34165 10.6417 5.30832C10.4833 4.42499 10.8917 3.51665 11.3917 2.90832C11.95 2.24165 12.8917 1.72499 13.7 1.66666Z" fill="#D9D2B0"/>
</svg>
