<svg width="40" height="40" viewBox="0 0 40 40" fill="none" xmlns="http://www.w3.org/2000/svg">
<path d="M33.5834 12.3333V19.1333C33.5834 20.8266 33.0234 22.2533 32.0234 23.24C31.0367 24.24 29.61 24.7999 27.9167 24.7999V27.2133C27.9167 28.1199 26.9033 28.6666 26.1567 28.16L24.8634 27.3066C24.9834 26.8933 25.0367 26.4399 25.0367 25.9599V20.5333C25.0367 17.8133 23.2234 16 20.5034 16H11.45C11.2633 16 11.09 16.0133 10.9167 16.0267V12.3333C10.9167 8.93329 13.1834 6.66663 16.5834 6.66663H27.9167C31.3167 6.66663 33.5834 8.93329 33.5834 12.3333Z" stroke="" stroke-width="1.5" stroke-miterlimit="10" stroke-linecap="round" stroke-linejoin="round"/>
<path d="M25.0367 20.5334V25.96C25.0367 26.44 24.9834 26.8933 24.8634 27.3066C24.37 29.2666 22.7434 30.4933 20.5034 30.4933H16.8767L12.85 33.1733C12.25 33.5867 11.45 33.1467 11.45 32.4267V30.4933C10.09 30.4933 8.95669 30.04 8.17002 29.2533C7.37002 28.4533 6.91669 27.32 6.91669 25.96V20.5334C6.91669 18 8.49002 16.2534 10.9167 16.0267C11.09 16.0134 11.2633 16 11.45 16H20.5034C23.2234 16 25.0367 17.8134 25.0367 20.5334Z" stroke="" stroke-width="1.5" stroke-miterlimit="10" stroke-linecap="round" stroke-linejoin="round"/>
</svg>
