<svg width="16" height="16" viewBox="0 0 16 16" fill="none" xmlns="http://www.w3.org/2000/svg">
<mask id="path-1-inside-1_2322_1218" fill="white">
<path fill-rule="evenodd" clip-rule="evenodd" d="M13.3657 4.23423C13.5157 4.38425 13.5999 4.5877 13.5999 4.79983C13.5999 5.01196 13.5157 5.21541 13.3657 5.36543L6.96568 11.7654C6.81566 11.9154 6.61221 11.9997 6.40008 11.9997C6.18795 11.9997 5.9845 11.9154 5.83448 11.7654L2.63448 8.56543C2.48876 8.41455 2.40812 8.21247 2.40994 8.00271C2.41177 7.79295 2.4959 7.5923 2.64423 7.44397C2.79255 7.29565 2.9932 7.21151 3.20296 7.20969C3.41272 7.20787 3.6148 7.2885 3.76568 7.43423L6.40008 10.0686L12.2345 4.23423C12.3845 4.08425 12.588 4 12.8001 4C13.0122 4 13.2157 4.08425 13.3657 4.23423Z"/>
</mask>
<path fill-rule="evenodd" clip-rule="evenodd" d="M13.3657 4.23423C13.5157 4.38425 13.5999 4.5877 13.5999 4.79983C13.5999 5.01196 13.5157 5.21541 13.3657 5.36543L6.96568 11.7654C6.81566 11.9154 6.61221 11.9997 6.40008 11.9997C6.18795 11.9997 5.9845 11.9154 5.83448 11.7654L2.63448 8.56543C2.48876 8.41455 2.40812 8.21247 2.40994 8.00271C2.41177 7.79295 2.4959 7.5923 2.64423 7.44397C2.79255 7.29565 2.9932 7.21151 3.20296 7.20969C3.41272 7.20787 3.6148 7.2885 3.76568 7.43423L6.40008 10.0686L12.2345 4.23423C12.3845 4.08425 12.588 4 12.8001 4C13.0122 4 13.2157 4.08425 13.3657 4.23423Z" fill="#17261E"/>
<path d="M13.3657 4.23423L14.6917 2.9086L14.6913 2.9082L13.3657 4.23423ZM13.5999 4.79983H15.4749H13.5999ZM13.3657 5.36543L14.6915 6.69125L14.6917 6.69105L13.3657 5.36543ZM6.96568 11.7654L8.29131 13.0915L8.29151 13.0913L6.96568 11.7654ZM5.83448 11.7654L4.50866 13.0913L4.50886 13.0915L5.83448 11.7654ZM2.63448 8.56543L1.28582 9.86801L1.29714 9.87973L1.30866 9.89125L2.63448 8.56543ZM3.76568 7.43423L5.09151 6.1084L5.07999 6.09688L5.06827 6.08556L3.76568 7.43423ZM6.40008 10.0686L5.07426 11.3945L6.40008 12.7203L7.72591 11.3945L6.40008 10.0686ZM12.2345 4.23423L10.9089 2.9082L10.9087 2.9084L12.2345 4.23423ZM12.8001 4V5.875V4ZM12.0397 5.55985C11.8381 5.35826 11.7249 5.08488 11.7249 4.79983H15.4749C15.4749 4.09052 15.1932 3.41024 14.6917 2.9086L12.0397 5.55985ZM11.7249 4.79983C11.7249 4.51478 11.8381 4.2414 12.0397 4.0398L14.6917 6.69105C15.1932 6.18941 15.4749 5.50914 15.4749 4.79983H11.7249ZM12.0399 4.0396L5.63986 10.4396L8.29151 13.0913L14.6915 6.69125L12.0399 4.0396ZM5.64006 10.4394C5.84165 10.2379 6.11503 10.1247 6.40008 10.1247V13.8747C7.1094 13.8747 7.78967 13.5929 8.29131 13.0915L5.64006 10.4394ZM6.40008 10.1247C6.68513 10.1247 6.95852 10.2379 7.16011 10.4394L4.50886 13.0915C5.01049 13.5929 5.69077 13.8747 6.40008 13.8747V10.1247ZM7.16031 10.4396L3.96031 7.2396L1.30866 9.89125L4.50866 13.0913L7.16031 10.4396ZM3.98315 7.26284C4.17897 7.46559 4.28732 7.73714 4.28487 8.019L0.535013 7.98642C0.528918 8.68779 0.798544 9.3635 1.28582 9.86801L3.98315 7.26284ZM4.28487 8.019C4.28242 8.30086 4.16937 8.57049 3.97005 8.7698L1.3184 6.11815C0.822435 6.61412 0.541108 7.28504 0.535013 7.98642L4.28487 8.019ZM3.97005 8.7698C3.77074 8.96911 3.50111 9.08217 3.21925 9.08462L3.18667 5.33476C2.48529 5.34086 1.81437 5.62218 1.3184 6.11815L3.97005 8.7698ZM3.21925 9.08462C2.93739 9.08707 2.66584 8.97871 2.4631 8.78289L5.06827 6.08556C4.56376 5.59829 3.88804 5.32867 3.18667 5.33476L3.21925 9.08462ZM2.43986 8.76005L5.07426 11.3945L7.72591 8.7428L5.09151 6.1084L2.43986 8.76005ZM7.72591 11.3945L13.5603 5.56005L10.9087 2.9084L5.07426 8.7428L7.72591 11.3945ZM13.5601 5.56025C13.3585 5.76179 13.0851 5.875 12.8001 5.875V2.125C12.0908 2.125 11.4105 2.40672 10.9089 2.9082L13.5601 5.56025ZM12.8001 5.875C12.515 5.875 12.2417 5.76179 12.0401 5.56025L14.6913 2.9082C14.1897 2.40672 13.5094 2.125 12.8001 2.125V5.875Z" fill="white" mask="url(#path-1-inside-1_2322_1218)"/>
</svg>
