<svg width="16" height="16" viewBox="0 0 16 16" fill="none" xmlns="http://www.w3.org/2000/svg">
<path d="M8.01145 10.6667C7.76393 10.6666 7.52658 10.5731 7.35158 10.4067L3.61825 6.85846C3.52911 6.77663 3.458 6.67875 3.40909 6.57052C3.36017 6.4623 3.33443 6.34589 3.33335 6.22811C3.33227 6.11032 3.35589 5.99351 3.40281 5.8845C3.44974 5.77548 3.51905 5.67644 3.60668 5.59315C3.69431 5.50986 3.79852 5.44399 3.91322 5.39939C4.02793 5.35478 4.15083 5.33234 4.27476 5.33336C4.39868 5.33439 4.52116 5.35886 4.63503 5.40535C4.7489 5.45184 4.85188 5.51942 4.93798 5.60414L8.01145 8.52527L11.0849 5.60414C11.2609 5.44255 11.4967 5.35314 11.7414 5.35516C11.9861 5.35718 12.2202 5.45048 12.3933 5.61495C12.5663 5.77942 12.6645 6.00191 12.6666 6.23449C12.6687 6.46708 12.5747 6.69116 12.4046 6.85846L8.67132 10.4067C8.49632 10.5731 8.25896 10.6666 8.01145 10.6667Z" fill="white"/>
</svg>
