<svg width="20" height="21" viewBox="0 0 20 21" fill="none" xmlns="http://www.w3.org/2000/svg">
<path d="M11.1887 10.5101L15.5995 6.09924C15.6791 6.02237 15.7426 5.93042 15.7862 5.82875C15.8299 5.72708 15.8529 5.61773 15.8539 5.50708C15.8548 5.39643 15.8337 5.2867 15.7918 5.18428C15.7499 5.08187 15.6881 4.98883 15.6098 4.91058C15.5316 4.83234 15.4385 4.77046 15.3361 4.72856C15.2337 4.68666 15.124 4.66557 15.0133 4.66654C14.9027 4.6675 14.7933 4.69049 14.6917 4.73416C14.59 4.77783 14.498 4.84132 14.4212 4.92091L10.0103 9.33174L5.59949 4.92091C5.44232 4.76911 5.23182 4.68512 5.01332 4.68702C4.79482 4.68891 4.58581 4.77656 4.43131 4.93106C4.2768 5.08557 4.18916 5.29458 4.18726 5.51308C4.18536 5.73157 4.26936 5.94208 4.42116 6.09924L8.83199 10.5101L4.42116 14.9209C4.34156 14.9978 4.27808 15.0897 4.2344 15.1914C4.19073 15.2931 4.16774 15.4024 4.16678 15.5131C4.16582 15.6237 4.1869 15.7335 4.2288 15.8359C4.2707 15.9383 4.33258 16.0313 4.41083 16.1096C4.48907 16.1878 4.58211 16.2497 4.68453 16.2916C4.78694 16.3335 4.89667 16.3546 5.00732 16.3536C5.11797 16.3527 5.22732 16.3297 5.32899 16.286C5.43066 16.2423 5.52262 16.1788 5.59949 16.0992L10.0103 11.6884L14.4212 16.0992C14.5783 16.251 14.7888 16.335 15.0073 16.3331C15.2258 16.3312 15.4348 16.2436 15.5893 16.0891C15.7438 15.9346 15.8315 15.7256 15.8334 15.5071C15.8353 15.2886 15.7513 15.0781 15.5995 14.9209L11.1887 10.5101Z" fill="#979797"/>
</svg>
