<svg width="48" height="48" viewBox="0 0 48 48" fill="none" xmlns="http://www.w3.org/2000/svg">
<g clip-path="url(#clip0_2033_7449)">
<path d="M24.0002 0C10.7453 0 0 10.7453 0 24.0002C0 37.255 10.7453 47.9998 24.0002 47.9998C37.255 47.9998 47.9998 37.255 47.9998 24.0002C47.9998 10.7453 37.255 0 24.0002 0ZM31.1369 28.9896C31.4218 29.2741 31.5819 29.6603 31.5819 30.0632C31.5819 30.4661 31.4218 30.8524 31.1369 31.1369C30.5425 31.7262 29.584 31.7262 28.9896 31.1369L24.0002 26.1475L19.0107 31.1369C18.4163 31.7262 17.4574 31.7262 16.863 31.1369C16.578 30.8524 16.418 30.4661 16.418 30.0632C16.418 29.6603 16.578 29.2741 16.863 28.9896L21.8528 24.0002L16.863 19.0107C16.276 18.4168 16.2783 17.4597 16.869 16.869C17.4597 16.2783 18.4168 16.276 19.0107 16.863L24.0002 21.8528L28.9896 16.863C29.5835 16.276 30.5401 16.2783 31.1309 16.869C31.7216 17.4597 31.7243 18.4168 31.1369 19.0107L26.1475 24.0002L31.1369 28.9896Z" fill="#6E6868"/>
<path d="M31.1369 28.9896C31.4218 29.2741 31.5819 29.6603 31.5819 30.0632C31.5819 30.4661 31.4218 30.8524 31.1369 31.1369C30.5425 31.7262 29.584 31.7262 28.9896 31.1369L24.0002 26.1475L19.0107 31.1369C18.4163 31.7262 17.4574 31.7262 16.863 31.1369C16.578 30.8524 16.418 30.4661 16.418 30.0632C16.418 29.6603 16.578 29.2741 16.863 28.9896L21.8528 24.0002L16.863 19.0107C16.276 18.4168 16.2783 17.4597 16.869 16.869C17.4597 16.2783 18.4168 16.276 19.0107 16.863L24.0002 21.8528L28.9896 16.863C29.5835 16.276 30.5401 16.2783 31.1309 16.869C31.7216 17.4597 31.7243 18.4168 31.1369 19.0107L26.1475 24.0002L31.1369 28.9896Z" fill="white"/>
</g>
<defs>
<clipPath id="clip0_2033_7449">
<rect width="48" height="48" fill="white"/>
</clipPath>
</defs>
</svg>
