<svg width="20" height="20" viewBox="0 0 20 20" fill="none" xmlns="http://www.w3.org/2000/svg">
<path d="M14.1667 11.1663V13.6663C14.1667 16.9997 12.8334 18.333 9.50008 18.333H6.33341C3.00008 18.333 1.66675 16.9997 1.66675 13.6663V10.4997C1.66675 7.16634 3.00008 5.83301 6.33341 5.83301H8.83341" stroke="#D97904" stroke-width="1.5" stroke-linecap="round" stroke-linejoin="round"/>
<path d="M14.1666 11.1663H11.4999C9.49992 11.1663 8.83325 10.4997 8.83325 8.49967V5.83301L14.1666 11.1663Z" stroke="#D97904" stroke-width="1.5" stroke-linecap="round" stroke-linejoin="round"/>
<path d="M9.66675 1.66699H13.0001" stroke="#D97904" stroke-width="1.5" stroke-linecap="round" stroke-linejoin="round"/>
<path d="M5.83325 4.16699C5.83325 2.78366 6.94992 1.66699 8.33325 1.66699H10.5166" stroke="#D97904" stroke-width="1.5" stroke-linecap="round" stroke-linejoin="round"/>
<path d="M18.3334 6.66699V11.8253C18.3334 13.117 17.2834 14.167 15.9917 14.167" stroke="#D97904" stroke-width="1.5" stroke-linecap="round" stroke-linejoin="round"/>
<path d="M18.3333 6.66699H15.8333C13.9583 6.66699 13.3333 6.04199 13.3333 4.16699V1.66699L18.3333 6.66699Z" stroke="#D97904" stroke-width="1.5" stroke-linecap="round" stroke-linejoin="round"/>
</svg>
