<svg width="146" height="161" viewBox="0 0 146 161" fill="none" xmlns="http://www.w3.org/2000/svg">
<g clip-path="url(#clip0_1956_6218)">
<g clip-path="url(#clip1_1956_6218)">
<path d="M62.5352 14.1456C45.2483 17.8201 34.213 34.8128 37.8875 52.0997C41.5619 69.3867 58.5546 80.4213 75.8415 76.7469C93.1284 73.0724 104.163 56.0803 100.489 38.7934C96.8143 21.5065 79.8221 10.4712 62.5352 14.1456ZM79.8792 49.9753C80.3297 50.2673 80.6455 50.7267 80.7572 51.2522C80.8689 51.7777 80.7673 52.3258 80.4745 52.7758C79.8626 53.7092 78.6126 53.9749 77.674 53.3711L69.7837 48.247L64.6596 56.1374C64.0478 57.0707 62.7971 57.3366 61.8585 56.7328C61.408 56.4407 61.0922 55.9813 60.9805 55.4559C60.8688 54.9304 60.9705 54.3823 61.2632 53.9322L66.3879 46.0418L58.497 40.9179C57.5667 40.306 57.3044 39.0571 57.9111 38.123C58.5177 37.1888 59.7653 36.9205 60.7027 37.5214L68.5931 42.646L73.717 34.7551C74.3289 33.8249 75.5772 33.5627 76.5114 34.1693C77.4455 34.776 77.7145 36.0235 77.1129 36.9609L71.9889 44.8513L79.8792 49.9753Z" fill="#A1A1A1"/>
<path d="M79.8792 49.9753C80.3297 50.2673 80.6455 50.7267 80.7572 51.2522C80.8689 51.7777 80.7673 52.3258 80.4745 52.7758C79.8626 53.7092 78.6126 53.9749 77.674 53.3711L69.7837 48.247L64.6596 56.1374C64.0478 57.0707 62.7971 57.3366 61.8585 56.7328C61.408 56.4407 61.0922 55.9813 60.9805 55.4559C60.8688 54.9304 60.9705 54.3823 61.2632 53.9322L66.3879 46.0418L58.497 40.9179C57.5667 40.306 57.3044 39.0571 57.9111 38.123C58.5177 37.1888 59.7653 36.9205 60.7027 37.5214L68.5931 42.646L73.717 34.7551C74.3289 33.8249 75.5772 33.5627 76.5114 34.1693C77.4455 34.776 77.7145 36.0235 77.1129 36.9609L71.9889 44.8513L79.8792 49.9753Z" fill="white"/>
</g>
<g filter="url(#filter0_d_1956_6218)">
<path d="M59.4692 105.785L56.8557 106.341L56.586 104.987L59.1823 104.436C60.0764 104.245 60.7819 103.901 61.2988 103.402C61.8144 102.897 62.1494 102.274 62.3037 101.535C62.4625 100.788 62.445 99.9592 62.2513 99.0479L62.0887 98.2828C61.9364 97.5663 61.7152 96.9484 61.4251 96.429C61.1338 95.9039 60.7811 95.4847 60.367 95.1713C59.9518 94.8523 59.4821 94.6436 58.958 94.5453C58.4397 94.4458 57.871 94.4619 57.2521 94.5935L54.4322 95.1928L54.1435 93.8345L56.9633 93.2351C57.7829 93.0609 58.5601 93.0395 59.2949 93.1709C60.0284 93.2965 60.6936 93.5654 61.2904 93.9777C61.8917 94.383 62.4016 94.9216 62.8199 95.5934C63.2371 96.2595 63.5419 97.0454 63.7343 97.9509L63.8933 98.6989C64.0858 99.6044 64.1276 100.449 64.0187 101.233C63.9085 102.011 63.6583 102.708 63.2681 103.324C62.8837 103.939 62.3711 104.459 61.7303 104.882C61.0941 105.299 60.3404 105.6 59.4692 105.785ZM55.0806 93.6353L57.7412 106.153L56.082 106.505L53.4214 93.988L55.0806 93.6353ZM67.3225 94.3938L69.2997 103.696L67.7007 104.036L65.7235 94.7337L67.3225 94.3938ZM65.0787 92.2919C65.0239 92.034 65.0549 91.7998 65.1719 91.5892C65.2946 91.3774 65.5107 91.2386 65.8202 91.1728C66.124 91.1083 66.375 91.1478 66.5732 91.2913C66.7772 91.4337 66.9066 91.6338 66.9614 91.8917C67.0138 92.1382 66.9758 92.3679 66.8473 92.5809C66.7234 92.7869 66.5096 92.9222 66.2058 92.9868C65.8963 93.0526 65.643 93.0166 65.446 92.8787C65.2535 92.734 65.1311 92.5383 65.0787 92.2919ZM76.9208 99.497C76.872 99.2678 76.7754 99.0667 76.6308 98.8937C76.4907 98.7138 76.2489 98.5765 75.9053 98.4819C75.5662 98.3802 75.0772 98.3344 74.4384 98.3444C73.8994 98.3451 73.4049 98.3155 72.9548 98.2554C72.5105 98.1941 72.1197 98.0885 71.7823 97.9385C71.4506 97.7874 71.177 97.585 70.9613 97.3313C70.7457 97.0776 70.597 96.7588 70.5154 96.3748C70.4375 96.008 70.444 95.6442 70.535 95.2834C70.6318 94.9214 70.8024 94.5826 71.0468 94.2671C71.297 93.9503 71.6189 93.6752 72.0126 93.4418C72.4062 93.2084 72.8638 93.0362 73.3854 92.9254C74.1304 92.767 74.7946 92.7636 75.378 92.9152C75.9613 93.0667 76.4403 93.3333 76.8149 93.7149C77.1883 94.0908 77.4317 94.5453 77.545 95.0783L75.9545 95.4163C75.8997 95.1584 75.7694 94.9256 75.5634 94.7177C75.362 94.503 75.0981 94.3464 74.7717 94.2481C74.4511 94.1485 74.0815 94.1432 73.6631 94.2321C73.2218 94.3259 72.8782 94.4708 72.6324 94.6669C72.391 94.8559 72.2292 95.067 72.147 95.3002C72.0705 95.5321 72.0566 95.7627 72.1053 95.9919C72.1419 96.1638 72.2034 96.3125 72.29 96.4379C72.381 96.5563 72.5161 96.6564 72.6952 96.7381C72.8731 96.8141 73.1128 96.871 73.4144 96.9087C73.7159 96.9465 74.0949 96.9677 74.5511 96.9726C75.35 96.9825 76.0214 97.0554 76.5655 97.1914C77.1095 97.3273 77.5391 97.5445 77.8541 97.843C78.1691 98.1414 78.3796 98.54 78.4856 99.0386C78.5721 99.4455 78.5653 99.8363 78.4653 100.211C78.3709 100.584 78.1895 100.929 77.9209 101.243C77.6568 101.551 77.3188 101.82 76.9067 102.052C76.4991 102.276 76.0231 102.446 75.4786 102.562C74.6591 102.736 73.9345 102.738 73.305 102.566C72.6754 102.394 72.1652 102.107 71.7742 101.705C71.3832 101.303 71.1329 100.844 71.0233 100.328L72.6223 99.9883C72.7378 100.419 72.9376 100.739 73.2217 100.948C73.5046 101.152 73.8238 101.272 74.1793 101.311C74.5337 101.343 74.8742 101.325 75.2009 101.255C75.6365 101.163 75.9882 101.028 76.2562 100.851C76.5298 100.673 76.7227 100.468 76.8348 100.234C76.9469 100.001 76.9756 99.7549 76.9208 99.497ZM80.222 87.5725L83.0288 100.778L81.4297 101.117L78.6229 87.9124L80.222 87.5725ZM85.509 90.5281L87.4862 99.8301L85.8871 100.17L83.9099 90.868L85.509 90.5281ZM83.2651 88.4263C83.2103 88.1683 83.2414 87.9341 83.3584 87.7235C83.4811 87.5118 83.6972 87.373 84.0067 87.3072C84.3104 87.2426 84.5614 87.2821 84.7597 87.4257C84.9636 87.568 85.093 87.7682 85.1479 88.0261C85.2002 88.2725 85.1622 88.5022 85.0338 88.7152C84.9098 88.9213 84.696 89.0566 84.3922 89.1212C84.0827 89.1869 83.8295 89.1509 83.6325 89.0131C83.4399 88.8683 83.3175 88.6727 83.2651 88.4263ZM89.0078 85.705L91.8146 98.91L90.2155 99.2499L87.4087 86.0449L89.0078 85.705ZM95.52 88.4002L92.385 93.6042L90.6161 96.4422L90.1272 94.776L91.339 92.4877L93.5771 88.8132L95.52 88.4002ZM96.0443 98.011L91.7829 94.2803L92.3067 92.6864L97.9184 97.6126L96.0443 98.011ZM103.04 96.7037C102.392 96.8414 101.782 96.8574 101.208 96.7516C100.639 96.639 100.123 96.4223 99.6592 96.1015C99.2014 95.7795 98.8137 95.3647 98.4962 94.8571C98.1786 94.3495 97.9504 93.7691 97.8115 93.1157L97.7348 92.7546C97.574 91.9981 97.5426 91.3009 97.6406 90.663C97.7375 90.0195 97.934 89.4506 98.2303 88.9563C98.5266 88.462 98.8958 88.0571 99.3379 87.7414C99.78 87.4258 100.262 87.2126 100.783 87.1017C101.448 86.9604 102.046 86.9532 102.576 87.0802C103.112 87.2059 103.578 87.4421 103.975 87.789C104.371 88.1302 104.703 88.5629 104.97 89.0871C105.236 89.6057 105.439 90.1916 105.577 90.845L105.729 91.5585L98.7828 93.035L98.5069 91.7369L103.863 90.5984L103.837 90.4781C103.727 90.0703 103.555 89.6874 103.323 89.3293C103.097 88.9701 102.8 88.6978 102.431 88.5127C102.062 88.3275 101.606 88.2928 101.061 88.4085C100.7 88.4852 100.384 88.6333 100.113 88.8526C99.8411 89.0662 99.6278 89.3451 99.4734 89.6894C99.3189 90.0338 99.2272 90.4336 99.1982 90.8891C99.1692 91.3445 99.2144 91.8531 99.3338 92.4147L99.4106 92.7758C99.5044 93.2171 99.6529 93.6198 99.8561 93.984C100.064 94.3412 100.316 94.641 100.613 94.8833C100.916 95.1244 101.254 95.2922 101.628 95.3865C102.007 95.4796 102.414 95.4799 102.85 95.3873C103.412 95.2679 103.863 95.0522 104.204 94.7401C104.545 94.428 104.821 94.0489 105.032 93.6027L106.157 94.1632C106.021 94.5096 105.827 94.8533 105.576 95.1941C105.325 95.535 104.992 95.8396 104.576 96.1078C104.165 96.3747 103.653 96.5734 103.04 96.7037Z" fill="white"/>
</g>
</g>
<path d="M89.3332 116.393C89.3253 116.318 89.3347 116.243 89.3605 116.172C89.3864 116.101 89.4281 116.037 89.4824 115.985L92.9656 112.636C93.0124 112.59 93.0677 112.555 93.1283 112.531C93.1889 112.507 93.2537 112.495 93.3189 112.496C93.3841 112.497 93.4484 112.511 93.5082 112.537C93.568 112.563 93.6221 112.601 93.6673 112.648C93.7125 112.695 93.7479 112.75 93.7716 112.811C93.7953 112.872 93.8067 112.936 93.8053 113.002C93.8038 113.067 93.7895 113.131 93.7631 113.191C93.7367 113.25 93.6988 113.304 93.6515 113.349L91.2078 115.699L106.69 114.071C106.82 114.06 106.949 114.099 107.049 114.182C107.15 114.264 107.214 114.383 107.227 114.513C107.241 114.642 107.203 114.771 107.122 114.873C107.041 114.975 106.923 115.04 106.794 115.056L91.312 116.683L94.1898 118.471C94.298 118.542 94.3742 118.652 94.4021 118.779C94.43 118.905 94.4074 119.037 94.3392 119.147C94.2709 119.256 94.1624 119.335 94.0369 119.366C93.9114 119.397 93.7788 119.377 93.6675 119.312L89.5641 116.762C89.5002 116.722 89.4461 116.668 89.4061 116.604C89.3661 116.54 89.3411 116.468 89.3332 116.393ZM110.636 142.165C108.345 145.722 104.046 147.531 99.6822 146.778C93.0454 145.63 88.9904 141.653 88.5455 138.496C88.2875 136.669 89.1661 135.157 91.091 134.104L94.2865 138.503C94.3651 138.605 94.4804 138.672 94.6078 138.69C94.7353 138.709 94.8648 138.677 94.969 138.601C95.0731 138.525 95.1437 138.412 95.1656 138.285C95.1875 138.158 95.1591 138.028 95.0864 137.921L91.664 133.21C91.6506 133.188 91.6356 133.168 91.6192 133.148L82.6216 120.762C82.3074 120.327 82.1786 119.785 82.2633 119.255C82.348 118.725 82.6394 118.25 83.0736 117.935C83.5078 117.619 84.0494 117.489 84.5797 117.572C85.1099 117.655 85.5855 117.945 85.9023 118.378L96.0195 132.303C96.0574 132.357 96.1055 132.402 96.161 132.437C96.2165 132.471 96.2783 132.495 96.3428 132.505C96.4074 132.516 96.4734 132.513 96.537 132.498C96.6007 132.483 96.6607 132.456 96.7136 132.417C96.7665 132.379 96.8113 132.33 96.8453 132.274C96.8793 132.218 96.9019 132.156 96.9118 132.092C96.9216 132.027 96.9186 131.961 96.9028 131.898C96.887 131.834 96.8588 131.774 96.8197 131.722L93.1386 126.654C92.9821 126.438 92.8696 126.194 92.8075 125.935C92.7453 125.676 92.7348 125.408 92.7765 125.145C92.8182 124.882 92.9113 124.63 93.0504 124.403C93.1896 124.176 93.3721 123.978 93.5875 123.822C93.8029 123.665 94.0471 123.553 94.306 123.491C94.5649 123.429 94.8335 123.418 95.0964 123.46C95.6275 123.544 96.1034 123.836 96.4194 124.271L100.1 129.337C100.138 129.39 100.186 129.435 100.242 129.47C100.297 129.505 100.359 129.528 100.424 129.538C100.488 129.549 100.554 129.547 100.618 129.532C100.681 129.516 100.742 129.489 100.794 129.45C100.847 129.412 100.892 129.363 100.926 129.308C100.96 129.252 100.983 129.19 100.993 129.125C101.002 129.06 100.999 128.994 100.984 128.931C100.968 128.867 100.94 128.808 100.901 128.755L98.5408 125.506C98.2248 125.071 98.0945 124.528 98.1787 123.997C98.2629 123.466 98.5546 122.99 98.9896 122.674C99.4247 122.358 99.9675 122.228 100.499 122.312C101.03 122.396 101.506 122.688 101.822 123.123L104.171 126.357L104.181 126.371C104.219 126.424 104.268 126.468 104.323 126.502C104.378 126.536 104.44 126.559 104.504 126.569C104.568 126.579 104.634 126.577 104.697 126.562C104.76 126.547 104.82 126.519 104.872 126.481C104.925 126.443 104.97 126.395 105.004 126.339C105.038 126.284 105.06 126.222 105.07 126.158C105.081 126.094 105.078 126.028 105.063 125.965C105.048 125.902 105.02 125.842 104.982 125.79L104.154 124.648C103.839 124.212 103.71 123.67 103.794 123.14C103.878 122.609 104.169 122.133 104.602 121.816C104.827 121.654 105.081 121.539 105.351 121.477C105.62 121.415 105.9 121.407 106.172 121.455C106.424 121.496 106.665 121.588 106.88 121.725C107.096 121.862 107.281 122.041 107.425 122.252C112.66 129.952 113.83 137.21 110.636 142.165ZM110.408 137.56C110.827 134.544 109.984 131.483 109.204 129.447C109.157 129.324 109.063 129.225 108.943 129.172C108.823 129.118 108.687 129.115 108.565 129.162C108.442 129.209 108.343 129.303 108.29 129.422C108.236 129.542 108.233 129.679 108.28 129.801C109.019 131.729 109.818 134.616 109.428 137.424C109.055 140.103 107.67 142.061 105.309 143.243C105.206 143.295 105.124 143.381 105.077 143.487C105.031 143.593 105.024 143.713 105.056 143.824C105.088 143.935 105.159 144.031 105.255 144.096C105.351 144.16 105.467 144.189 105.582 144.177C105.641 144.171 105.699 144.154 105.752 144.127C108.422 142.791 109.988 140.581 110.408 137.56Z" fill="white"/>
<defs>
<filter id="filter0_d_1956_6218" x="33.2751" y="63.5566" width="93.3842" height="64.1211" filterUnits="userSpaceOnUse" color-interpolation-filters="sRGB">
<feFlood flood-opacity="0" result="BackgroundImageFix"/>
<feColorMatrix in="SourceAlpha" type="matrix" values="0 0 0 0 0 0 0 0 0 0 0 0 0 0 0 0 0 0 127 0" result="hardAlpha"/>
<feOffset dy="1"/>
<feGaussianBlur stdDeviation="10"/>
<feComposite in2="hardAlpha" operator="out"/>
<feColorMatrix type="matrix" values="0 0 0 0 0 0 0 0 0 0 0 0 0 0 0 0 0 0 0.32 0"/>
<feBlend mode="normal" in2="BackgroundImageFix" result="effect1_dropShadow_1956_6218"/>
<feBlend mode="normal" in="SourceGraphic" in2="effect1_dropShadow_1956_6218" result="shape"/>
</filter>
<clipPath id="clip0_1956_6218">
<path d="M0.231201 27.3887L124.839 0.902526L142.511 84.0451C143.43 88.3668 140.671 92.6149 136.349 93.5335L27.3922 116.693C23.0704 117.612 18.8223 114.853 17.9037 110.531L0.231201 27.3887Z" fill="white"/>
</clipPath>
<clipPath id="clip1_1956_6218">
<rect width="64" height="64" fill="white" transform="translate(31.2343 20.7988) rotate(-12)"/>
</clipPath>
</defs>
</svg>
