<svg width="120" height="78" viewBox="0 0 120 78" fill="none" xmlns="http://www.w3.org/2000/svg">
<g clip-path="url(#clip0_1956_6146)">
<g clip-path="url(#clip1_1956_6146)">
<path d="M60.0002 0.5C46.7453 0.5 36 11.2453 36 24.5002C36 37.755 46.7453 48.4998 60.0002 48.4998C73.255 48.4998 83.9998 37.755 83.9998 24.5002C83.9998 11.2453 73.255 0.5 60.0002 0.5ZM67.1369 29.4896C67.4218 29.7741 67.5819 30.1603 67.5819 30.5632C67.5819 30.9661 67.4218 31.3524 67.1369 31.6369C66.5425 32.2262 65.584 32.2262 64.9896 31.6369L60.0002 26.6475L55.0107 31.6369C54.4163 32.2262 53.4574 32.2262 52.863 31.6369C52.578 31.3524 52.418 30.9661 52.418 30.5632C52.418 30.1603 52.578 29.7741 52.863 29.4896L57.8528 24.5002L52.863 19.5107C52.276 18.9168 52.2783 17.9597 52.869 17.369C53.4597 16.7783 54.4168 16.776 55.0107 17.363L60.0002 22.3528L64.9896 17.363C65.5835 16.776 66.5401 16.7783 67.1309 17.369C67.7216 17.9597 67.7243 18.9168 67.1369 19.5107L62.1475 24.5002L67.1369 29.4896Z" fill="#6E6868"/>
<path d="M67.1369 29.4896C67.4218 29.7741 67.5819 30.1603 67.5819 30.5632C67.5819 30.9661 67.4218 31.3524 67.1369 31.6369C66.5425 32.2262 65.584 32.2262 64.9896 31.6369L60.0002 26.6475L55.0107 31.6369C54.4163 32.2262 53.4574 32.2262 52.863 31.6369C52.578 31.3524 52.418 30.9661 52.418 30.5632C52.418 30.1603 52.578 29.7741 52.863 29.4896L57.8528 24.5002L52.863 19.5107C52.276 18.9168 52.2783 17.9597 52.869 17.369C53.4597 16.7783 54.4168 16.776 55.0107 17.363L60.0002 22.3528L64.9896 17.363C65.5835 16.776 66.5401 16.7783 67.1309 17.369C67.7216 17.9597 67.7243 18.9168 67.1369 19.5107L62.1475 24.5002L67.1369 29.4896Z" fill="white"/>
</g>
<g filter="url(#filter0_d_1956_6146)">
<path d="M37.9482 73.5H35.2764L35.2939 72.1201H37.9482C38.8623 72.1201 39.624 71.9297 40.2334 71.5488C40.8428 71.1621 41.2998 70.623 41.6045 69.9316C41.915 69.2344 42.0703 68.4199 42.0703 67.4883V66.7061C42.0703 65.9736 41.9824 65.3232 41.8066 64.7549C41.6309 64.1807 41.373 63.6973 41.0332 63.3047C40.6934 62.9062 40.2773 62.6045 39.7852 62.3994C39.2988 62.1943 38.7393 62.0918 38.1064 62.0918H35.2236V60.7031H38.1064C38.9443 60.7031 39.709 60.8438 40.4004 61.125C41.0918 61.4004 41.6865 61.8018 42.1846 62.3291C42.6885 62.8506 43.0752 63.4834 43.3447 64.2275C43.6143 64.9658 43.749 65.7979 43.749 66.7236V67.4883C43.749 68.4141 43.6143 69.249 43.3447 69.9932C43.0752 70.7314 42.6855 71.3613 42.1758 71.8828C41.6719 72.4043 41.0625 72.8057 40.3477 73.0869C39.6387 73.3623 38.8389 73.5 37.9482 73.5ZM36.1816 60.7031V73.5H34.4854V60.7031H36.1816ZM47.9984 63.9902V73.5H46.3636V63.9902H47.9984ZM46.2405 61.4678C46.2405 61.2041 46.3196 60.9814 46.4779 60.7998C46.6419 60.6182 46.8821 60.5273 47.1986 60.5273C47.5091 60.5273 47.7464 60.6182 47.9105 60.7998C48.0804 60.9814 48.1654 61.2041 48.1654 61.4678C48.1654 61.7197 48.0804 61.9365 47.9105 62.1182C47.7464 62.2939 47.5091 62.3818 47.1986 62.3818C46.8821 62.3818 46.6419 62.2939 46.4779 62.1182C46.3196 61.9365 46.2405 61.7197 46.2405 61.4678ZM56.3258 70.9775C56.3258 70.7432 56.2731 70.5264 56.1676 70.3271C56.068 70.1221 55.86 69.9375 55.5436 69.7734C55.233 69.6035 54.7643 69.457 54.1373 69.334C53.61 69.2227 53.1325 69.0908 52.7047 68.9385C52.2829 68.7861 51.9225 68.6016 51.6237 68.3848C51.3307 68.168 51.1051 67.9131 50.9469 67.6201C50.7887 67.3271 50.7096 66.9844 50.7096 66.5918C50.7096 66.2168 50.7916 65.8623 50.9557 65.5283C51.1256 65.1943 51.3629 64.8984 51.6676 64.6406C51.9782 64.3828 52.3502 64.1807 52.7838 64.0342C53.2174 63.8877 53.7008 63.8145 54.234 63.8145C54.9957 63.8145 55.6461 63.9492 56.1852 64.2188C56.7243 64.4883 57.1373 64.8486 57.4245 65.2998C57.7116 65.7451 57.8551 66.2402 57.8551 66.7852H56.2291C56.2291 66.5215 56.15 66.2666 55.9918 66.0205C55.8395 65.7686 55.6139 65.5605 55.3151 65.3965C55.0221 65.2324 54.6618 65.1504 54.234 65.1504C53.7829 65.1504 53.4166 65.2207 53.1354 65.3613C52.86 65.4961 52.6579 65.6689 52.5289 65.8799C52.4059 66.0908 52.3444 66.3135 52.3444 66.5479C52.3444 66.7236 52.3737 66.8818 52.4323 67.0225C52.4967 67.1572 52.608 67.2832 52.7663 67.4004C52.9245 67.5117 53.1471 67.6172 53.4342 67.7168C53.7213 67.8164 54.0875 67.916 54.5329 68.0156C55.3121 68.1914 55.9538 68.4023 56.4577 68.6484C56.9616 68.8945 57.3366 69.1963 57.5827 69.5537C57.8288 69.9111 57.9518 70.3447 57.9518 70.8545C57.9518 71.2705 57.8639 71.6514 57.6881 71.9971C57.5182 72.3428 57.2692 72.6416 56.9411 72.8936C56.6188 73.1396 56.2321 73.333 55.7809 73.4736C55.3356 73.6084 54.8346 73.6758 54.278 73.6758C53.4401 73.6758 52.7311 73.5264 52.151 73.2275C51.5709 72.9287 51.1315 72.542 50.8327 72.0674C50.5338 71.5928 50.3844 71.0918 50.3844 70.5645H52.0192C52.0426 71.0098 52.1715 71.3643 52.4059 71.6279C52.6403 71.8857 52.9274 72.0703 53.2672 72.1816C53.6071 72.2871 53.944 72.3398 54.278 72.3398C54.7233 72.3398 55.0954 72.2812 55.3942 72.1641C55.6989 72.0469 55.9303 71.8857 56.0885 71.6807C56.2467 71.4756 56.3258 71.2412 56.3258 70.9775ZM62.0341 60V73.5H60.3994V60H62.0341ZM66.5911 63.9902V73.5H64.9563V63.9902H66.5911ZM64.8333 61.4678C64.8333 61.2041 64.9124 60.9814 65.0706 60.7998C65.2346 60.6182 65.4749 60.5273 65.7913 60.5273C66.1018 60.5273 66.3391 60.6182 66.5032 60.7998C66.6731 60.9814 66.7581 61.2041 66.7581 61.4678C66.7581 61.7197 66.6731 61.9365 66.5032 62.1182C66.3391 62.2939 66.1018 62.3818 65.7913 62.3818C65.4749 62.3818 65.2346 62.2939 65.0706 62.1182C64.9124 61.9365 64.8333 61.7197 64.8333 61.4678ZM71.0162 60V73.5H69.3814V60H71.0162ZM76.8258 63.9902L72.6773 68.4287L70.357 70.8369L70.2252 69.1055L71.8863 67.1191L74.8395 63.9902H76.8258ZM75.3404 73.5L71.9479 68.9648L72.7916 67.5146L77.2564 73.5H75.3404ZM82.455 73.6758C81.7929 73.6758 81.1923 73.5645 80.6532 73.3418C80.12 73.1133 79.6601 72.7939 79.2734 72.3838C78.8925 71.9736 78.5995 71.4873 78.3945 70.9248C78.1894 70.3623 78.0868 69.7471 78.0868 69.0791V68.71C78.0868 67.9365 78.2011 67.248 78.4296 66.6445C78.6581 66.0352 78.9687 65.5195 79.3613 65.0977C79.7538 64.6758 80.1991 64.3564 80.6972 64.1396C81.1952 63.9229 81.7109 63.8145 82.2441 63.8145C82.9238 63.8145 83.5097 63.9316 84.0019 64.166C84.4999 64.4004 84.9072 64.7285 85.2236 65.1504C85.54 65.5664 85.7743 66.0586 85.9267 66.627C86.079 67.1895 86.1552 67.8047 86.1552 68.4727V69.2021H79.0536V67.875H84.5292V67.752C84.5058 67.3301 84.4179 66.9199 84.2655 66.5215C84.1191 66.123 83.8847 65.7949 83.5624 65.5371C83.2402 65.2793 82.8007 65.1504 82.2441 65.1504C81.8749 65.1504 81.5351 65.2295 81.2245 65.3877C80.914 65.54 80.6474 65.7686 80.4247 66.0732C80.2021 66.3779 80.0292 66.75 79.9062 67.1895C79.7831 67.6289 79.7216 68.1357 79.7216 68.71V69.0791C79.7216 69.5303 79.7831 69.9551 79.9062 70.3535C80.0351 70.7461 80.2197 71.0918 80.4599 71.3906C80.706 71.6895 81.0019 71.9238 81.3476 72.0938C81.6991 72.2637 82.0976 72.3486 82.5429 72.3486C83.1171 72.3486 83.6034 72.2314 84.0019 71.9971C84.4003 71.7627 84.7489 71.4492 85.0478 71.0566L86.0322 71.8389C85.8271 72.1494 85.5663 72.4453 85.2499 72.7266C84.9335 73.0078 84.5439 73.2363 84.081 73.4121C83.6239 73.5879 83.082 73.6758 82.455 73.6758Z" fill="white"/>
</g>
</g>
<defs>
<filter id="filter0_d_1956_6146" x="14.4854" y="41" width="91.6698" height="53.6758" filterUnits="userSpaceOnUse" color-interpolation-filters="sRGB">
<feFlood flood-opacity="0" result="BackgroundImageFix"/>
<feColorMatrix in="SourceAlpha" type="matrix" values="0 0 0 0 0 0 0 0 0 0 0 0 0 0 0 0 0 0 127 0" result="hardAlpha"/>
<feOffset dy="1"/>
<feGaussianBlur stdDeviation="10"/>
<feComposite in2="hardAlpha" operator="out"/>
<feColorMatrix type="matrix" values="0 0 0 0 0 0 0 0 0 0 0 0 0 0 0 0 0 0 0.32 0"/>
<feBlend mode="normal" in2="BackgroundImageFix" result="effect1_dropShadow_1956_6146"/>
<feBlend mode="normal" in="SourceGraphic" in2="effect1_dropShadow_1956_6146" result="shape"/>
</filter>
<clipPath id="clip0_1956_6146">
<path d="M0 0.5H120V69.5C120 73.9183 116.418 77.5 112 77.5H8C3.58172 77.5 0 73.9183 0 69.5V0.5Z" fill="white"/>
</clipPath>
<clipPath id="clip1_1956_6146">
<rect width="48" height="48" fill="white" transform="translate(36 0.5)"/>
</clipPath>
</defs>
</svg>
