<svg width="34" height="34" viewBox="0 0 34 34" fill="none" xmlns="http://www.w3.org/2000/svg">
<g filter="url(#filter0_d_1552_4504)">
<rect x="1" width="32" height="32" rx="16" fill="#D97904"/>
<g clip-path="url(#clip0_1552_4504)">
<path d="M11.3333 24.0002H21.3333C21.9531 23.9984 22.5469 23.7508 22.9844 23.3117C23.4218 22.8727 23.6672 22.278 23.6667 21.6582V16.6335C23.6667 16.4567 23.5964 16.2871 23.4714 16.1621C23.3464 16.0371 23.1768 15.9668 23 15.9668C22.8232 15.9668 22.6536 16.0371 22.5286 16.1621C22.4036 16.2871 22.3333 16.4567 22.3333 16.6335V21.6582C22.3342 21.9245 22.2294 22.1802 22.0419 22.3693C21.8545 22.5584 21.5996 22.6654 21.3333 22.6668H11.3333C11.0671 22.6654 10.8122 22.5584 10.6247 22.3693C10.4372 22.1802 10.3324 21.9245 10.3333 21.6582V11.6755C10.3324 11.4092 10.4372 11.1534 10.6247 10.9643C10.8122 10.7752 11.0671 10.6682 11.3333 10.6668H16.3333C16.5101 10.6668 16.6797 10.5966 16.8047 10.4716C16.9298 10.3465 17 10.177 17 10.0002C17 9.82335 16.9298 9.65378 16.8047 9.52876C16.6797 9.40373 16.5101 9.3335 16.3333 9.3335H11.3333C10.7135 9.33526 10.1198 9.58285 9.68231 10.0219C9.24485 10.461 8.99947 11.0557 9 11.6755V21.6582C8.99947 22.278 9.24485 22.8727 9.68231 23.3117C10.1198 23.7508 10.7135 23.9984 11.3333 24.0002Z" fill="white"/>
<path d="M15.3034 15.0292L14.7774 17.4386C14.7536 17.5479 14.7576 17.6614 14.7892 17.7687C14.8208 17.876 14.8788 17.9736 14.958 18.0526C15.0383 18.1296 15.136 18.1861 15.2428 18.2173C15.3495 18.2485 15.4622 18.2535 15.5714 18.2319L17.9754 17.7046C18.1002 17.6772 18.2145 17.6144 18.3047 17.5239L24.3807 11.4479C24.5665 11.2622 24.7138 11.0417 24.8143 10.799C24.9149 10.5563 24.9666 10.2962 24.9666 10.0336C24.9666 9.7709 24.9149 9.5108 24.8143 9.26812C24.7138 9.02545 24.5665 8.80496 24.3807 8.61923C23.9999 8.25533 23.4934 8.05225 22.9667 8.05225C22.44 8.05225 21.9335 8.25533 21.5527 8.61923L15.486 14.7012C15.395 14.7908 15.3316 14.9047 15.3034 15.0292ZM22.4954 9.56257C22.6222 9.44106 22.7911 9.37323 22.9667 9.37323C23.1423 9.37323 23.3112 9.44106 23.438 9.56257C23.5614 9.68832 23.6305 9.85743 23.6305 10.0336C23.6305 10.2097 23.5614 10.3788 23.438 10.5046L22.9667 10.9759L22.024 10.0332L22.4954 9.56257ZM16.562 15.5052L21.078 10.9779L22.0114 11.9159L17.4934 16.4446L16.2967 16.7072L16.562 15.5052Z" fill="white"/>
</g>
</g>
<defs>
<filter id="filter0_d_1552_4504" x="0" y="0" width="34" height="34" filterUnits="userSpaceOnUse" color-interpolation-filters="sRGB">
<feFlood flood-opacity="0" result="BackgroundImageFix"/>
<feColorMatrix in="SourceAlpha" type="matrix" values="0 0 0 0 0 0 0 0 0 0 0 0 0 0 0 0 0 0 127 0" result="hardAlpha"/>
<feOffset dy="1"/>
<feGaussianBlur stdDeviation="0.5"/>
<feComposite in2="hardAlpha" operator="out"/>
<feColorMatrix type="matrix" values="0 0 0 0 0 0 0 0 0 0 0 0 0 0 0 0 0 0 0.08 0"/>
<feBlend mode="normal" in2="BackgroundImageFix" result="effect1_dropShadow_1552_4504"/>
<feBlend mode="normal" in="SourceGraphic" in2="effect1_dropShadow_1552_4504" result="shape"/>
</filter>
<clipPath id="clip0_1552_4504">
<rect width="16" height="16" fill="white" transform="translate(9 8)"/>
</clipPath>
</defs>
</svg>
