<svg width="20" height="20" viewBox="0 0 20 20" fill="none" xmlns="http://www.w3.org/2000/svg">
<path d="M18.3334 13.4917C18.3334 16.525 16.525 18.3333 13.4917 18.3333H12.5C12.0417 18.3333 11.6667 17.9583 11.6667 17.5V12.6917C11.6667 12.4667 11.85 12.275 12.075 12.275L13.5417 12.25C13.6584 12.2417 13.7584 12.1583 13.7834 12.0417L14.075 10.45C14.1 10.3 13.9833 10.1583 13.825 10.1583L12.05 10.1833C11.8167 10.1833 11.6334 10 11.625 9.775L11.5917 7.73332C11.5917 7.59999 11.7 7.48333 11.8417 7.48333L13.8417 7.44999C13.9833 7.44999 14.0917 7.34167 14.0917 7.2L14.0583 5.19998C14.0583 5.05831 13.95 4.94999 13.8084 4.94999L11.5583 4.98333C10.175 5.00833 9.07503 6.14165 9.10003 7.52499L9.14169 9.81665C9.15002 10.05 8.96669 10.2333 8.73336 10.2417L7.73335 10.2583C7.59168 10.2583 7.48336 10.3666 7.48336 10.5083L7.50836 12.0917C7.50836 12.2333 7.61668 12.3417 7.75835 12.3417L8.75836 12.325C8.99169 12.325 9.17501 12.5083 9.18334 12.7333L9.25834 17.4833C9.26667 17.95 8.89167 18.3333 8.42501 18.3333H6.50835C3.47502 18.3333 1.66669 16.525 1.66669 13.4833V6.50832C1.66669 3.47499 3.47502 1.66666 6.50835 1.66666H13.4917C16.525 1.66666 18.3334 3.47499 18.3334 6.50832V13.4917Z" fill="#D9D2B0"/>
</svg>
