<svg width="20" height="20" viewBox="0 0 20 20" fill="none" xmlns="http://www.w3.org/2000/svg">
<path d="M18.1166 9.22499C18.075 8.79999 17.7166 8.48332 17.2916 8.48332H11C10.5416 8.48332 10.1666 8.85832 10.1666 9.31665V10.7417C10.1666 11.2 10.5416 11.575 11 11.575H14.7583C14.6666 12.3417 14.1666 13.5 13.0583 14.275C12.35 14.7667 11.4083 15.1083 10.1666 15.1083C10.1083 15.1083 10.0583 15.1083 9.99998 15.1C7.87498 15.0333 6.07498 13.6083 5.42498 11.65C5.24998 11.125 5.14998 10.575 5.14998 9.99999C5.14998 9.42499 5.24998 8.86665 5.41665 8.34998C5.46665 8.19998 5.52498 8.05 5.59165 7.9C6.35831 6.175 8.03331 4.95833 9.99998 4.89999C10.05 4.89166 10.1083 4.89165 10.1666 4.89165C11.3583 4.89165 12.25 5.28331 12.875 5.71664C13.2 5.94164 13.6333 5.89165 13.9166 5.61665L15.075 4.48333C15.4416 4.12499 15.4083 3.51664 14.9916 3.21664C13.6666 2.24164 12.05 1.66666 10.1666 1.66666C10.1083 1.66666 10.0583 1.66666 9.99998 1.675C6.80831 1.73333 4.06665 3.58333 2.72498 6.25833C2.15831 7.39166 1.83331 8.65832 1.83331 9.99999C1.83331 11.3417 2.15831 12.6083 2.72498 13.7416H2.73331C4.07498 16.4166 6.81665 18.2666 9.99998 18.325C10.0583 18.3333 10.1083 18.3333 10.1666 18.3333C12.4166 18.3333 14.3083 17.5916 15.6833 16.3166C17.2583 14.8583 18.1666 12.725 18.1666 10.1833C18.1666 9.82499 18.15 9.51666 18.1166 9.22499Z" fill="#D9D2B0"/>
</svg>
