<svg width="64" height="64" viewBox="0 0 64 64" fill="none" xmlns="http://www.w3.org/2000/svg">
<path d="M27.4387 41.0803L19.7162 32.3366C18.6675 31.2878 18.6675 29.5878 19.7162 28.5391C20.765 27.4903 22.465 27.4903 23.5137 28.5391L26.5125 31.5378V12.2253C26.5125 10.7416 27.715 9.54031 29.1975 9.54031C30.6812 9.54031 31.8825 10.7428 31.8825 12.2253V22.2841C31.8825 20.8178 33.0575 19.6266 34.5163 19.5991C36.0213 19.5703 37.2538 20.8391 37.2538 22.3441V24.9203C37.2538 23.4541 38.4288 22.2628 39.8875 22.2353C41.3463 22.2078 42.625 23.4753 42.625 24.9803V27.8491C42.625 26.3828 43.8 25.1916 45.2588 25.1641C46.7638 25.1353 47.9963 26.4041 47.9963 27.9091V30.0453V33.9253C47.9963 34.6466 47.8638 35.3603 47.6038 36.0328L45.41 41.7228C45.1513 42.3953 45.0175 43.1103 45.0175 43.8303C45.0175 44.2478 44.6788 44.5878 44.26 44.5878H29.5625C29.19 44.5878 28.8787 44.3153 28.815 43.9478C28.63 42.8891 28.1562 41.8941 27.4362 41.0791L27.4387 41.0803ZM48.2275 51.5316V48.6016C48.2275 46.9841 46.9163 45.6716 45.2975 45.6716H28.6962C27.0787 45.6716 25.7662 46.9828 25.7662 48.6016V51.5316C25.7662 53.1491 27.0775 54.4616 28.6962 54.4616H45.2975C46.915 54.4616 48.2275 53.1503 48.2275 51.5316ZM24.3175 11.5978H18.2737L19.0612 10.8103C19.345 10.5266 19.3737 10.0616 19.0987 9.76906C18.8237 9.47656 18.3387 9.46156 18.0475 9.75281L15.9887 11.8116C15.7025 12.0978 15.7025 12.5616 15.9887 12.8478L18.0475 14.9066C18.19 15.0491 18.3775 15.1216 18.565 15.1216C18.7525 15.1216 18.9287 15.0541 19.07 14.9203C19.3687 14.6353 19.3525 14.1416 19.0612 13.8491L18.275 13.0628H24.3187C24.7237 13.0628 25.0512 12.7353 25.0512 12.3303C25.0512 11.9253 24.7237 11.5978 24.3187 11.5978H24.3175ZM33.3512 12.3303C33.3512 11.9253 33.6788 11.5978 34.0838 11.5978H40.1275L39.3413 10.8116C39.0488 10.5191 39.0338 10.0253 39.3325 9.74031C39.4738 9.60531 39.655 9.53906 39.8375 9.53906C40.02 9.53906 40.2125 9.61031 40.355 9.75406L42.4138 11.8128C42.7 12.0991 42.7 12.5628 42.4138 12.8491L40.355 14.9078C40.0638 15.1991 39.5875 15.1941 39.3038 14.8916C39.0288 14.5991 39.0575 14.1341 39.3413 13.8503L40.1288 13.0628H34.085C33.68 13.0628 33.3525 12.7353 33.3525 12.3303H33.3512Z" fill="white"/>
</svg>
