<svg width="48" height="48" viewBox="0 0 48 48" fill="none" xmlns="http://www.w3.org/2000/svg">
<g clip-path="url(#clip0_2033_7454)">
<path d="M24 0C10.7456 0 0 10.7456 0 24C0 37.2544 10.7456 48 24 48C37.2544 48 48 37.2544 48 24C48 10.7456 37.2544 0 24 0ZM35.0625 24.7744C34.3566 26.3372 33.3206 27.6741 32.2144 28.9641C30.0712 31.4606 27.5522 33.4641 24.5606 34.8609C24.3867 34.9506 24.1938 34.9973 23.9981 34.9973C23.8024 34.9973 23.6096 34.9506 23.4356 34.8609C19.4044 32.9775 16.2844 30.0516 13.8234 26.3934C12.6366 24.6309 12 22.6875 12.0684 20.5387C12.1875 16.6181 15.8634 13.6144 19.7306 14.2922C21.1002 14.5212 22.3623 15.1775 23.3363 16.1672C23.5462 16.3781 23.7441 16.6012 23.9391 16.8084C24.5128 16.3116 25.0013 15.81 25.5628 15.4134C29.5153 12.6188 35.0578 14.9363 35.8331 19.7091C36.1181 21.4688 35.7956 23.1562 35.0625 24.7744Z" fill="#FB4455"/>
<path d="M35.0625 24.7744C34.3566 26.3372 33.3206 27.6741 32.2144 28.9641C30.0712 31.4606 27.5522 33.4641 24.5606 34.8609C24.3867 34.9506 24.1938 34.9973 23.9981 34.9973C23.8024 34.9973 23.6096 34.9506 23.4356 34.8609C19.4044 32.9775 16.2844 30.0516 13.8234 26.3934C12.6366 24.6309 12 22.6875 12.0684 20.5387C12.1875 16.6181 15.8634 13.6144 19.7306 14.2922C21.1002 14.5212 22.3623 15.1775 23.3363 16.1672C23.5462 16.3781 23.7441 16.6012 23.9391 16.8084C24.5128 16.3116 25.0013 15.81 25.5628 15.4134C29.5153 12.6188 35.0578 14.9363 35.8331 19.7091C36.1181 21.4688 35.7956 23.1562 35.0625 24.7744Z" fill="white"/>
</g>
<defs>
<clipPath id="clip0_2033_7454">
<rect width="48" height="48" fill="white"/>
</clipPath>
</defs>
</svg>
