<svg width="40" height="40" viewBox="0 0 40 40" fill="none" xmlns="http://www.w3.org/2000/svg">
<path d="M30.72 13.0933L23.04 7.72C20.9467 6.25333 17.7333 6.33333 15.72 7.89333L9.03999 13.1067C7.70665 14.1467 6.65332 16.28 6.65332 17.96V27.16C6.65332 30.56 9.41332 33.3333 12.8133 33.3333H27.1867C30.5867 33.3333 33.3467 30.5733 33.3467 27.1733V18.1333C33.3467 16.3333 32.1867 14.12 30.72 13.0933ZM21 28C21 28.5467 20.5467 29 20 29C19.4533 29 19 28.5467 19 28V24C19 23.4533 19.4533 23 20 23C20.5467 23 21 23.4533 21 24V28Z"
 stroke="" stroke-width="1.5" stroke-linecap="round" stroke-linejoin="round"/>
</svg>
