<svg width="16" height="16" viewBox="0 0 16 16" fill="none" xmlns="http://www.w3.org/2000/svg">
<path d="M8.00004 1.33398C6.6815 1.33398 5.39257 1.72498 4.29624 2.45752C3.19991 3.19006 2.34543 4.23125 1.84085 5.44943C1.33626 6.6676 1.20424 8.00804 1.46148 9.30125C1.71871 10.5945 2.35365 11.7823 3.286 12.7147C4.21835 13.647 5.40623 14.282 6.69944 14.5392C7.99265 14.7965 9.33309 14.6644 10.5513 14.1598C11.7694 13.6553 12.8106 12.8008 13.5432 11.7044C14.2757 10.6081 14.6667 9.31919 14.6667 8.00065C14.6648 6.23314 13.9618 4.53857 12.7119 3.28875C11.4621 2.03893 9.76756 1.33593 8.00004 1.33398ZM7.66671 4.00065C7.86449 4.00065 8.05783 4.0593 8.22228 4.16918C8.38673 4.27906 8.5149 4.43524 8.59059 4.61797C8.66628 4.80069 8.68608 5.00176 8.64749 5.19574C8.60891 5.38972 8.51367 5.5679 8.37382 5.70776C8.23396 5.84761 8.05578 5.94285 7.8618 5.98144C7.66782 6.02002 7.46675 6.00022 7.28403 5.92453C7.1013 5.84884 6.94512 5.72067 6.83524 5.55622C6.72536 5.39177 6.66671 5.19843 6.66671 5.00065C6.66671 4.73543 6.77207 4.48108 6.9596 4.29354C7.14714 4.10601 7.40149 4.00065 7.66671 4.00065ZM9.33338 11.334H6.66671C6.4899 11.334 6.32033 11.2637 6.1953 11.1387C6.07028 11.0137 6.00004 10.8441 6.00004 10.6673C6.00004 10.4905 6.07028 10.3209 6.1953 10.1959C6.32033 10.0709 6.4899 10.0006 6.66671 10.0006H7.33338V8.00065H6.66671C6.4899 8.00065 6.32033 7.93041 6.1953 7.80539C6.07028 7.68036 6.00004 7.51079 6.00004 7.33398C6.00004 7.15717 6.07028 6.9876 6.1953 6.86258C6.32033 6.73755 6.4899 6.66732 6.66671 6.66732H8.00004C8.17685 6.66732 8.34642 6.73755 8.47145 6.86258C8.59647 6.9876 8.66671 7.15717 8.66671 7.33398V10.0006H9.33338C9.51019 10.0006 9.67976 10.0709 9.80478 10.1959C9.9298 10.3209 10 10.4905 10 10.6673C10 10.8441 9.9298 11.0137 9.80478 11.1387C9.67976 11.2637 9.51019 11.334 9.33338 11.334Z" fill="white"/>
</svg>
