<svg width="96" height="96" viewBox="0 0 96 96" fill="none" xmlns="http://www.w3.org/2000/svg">
<rect x="0.5" y="0.5" width="95" height="95" rx="7.5" fill="#525853" fill-opacity="0.1"/>
<rect x="0.5" y="0.5" width="95" height="95" rx="7.5" stroke="" stroke-dasharray="2 2"/>
<path d="M56.9605 36.48H39.0405C37.6266 36.48 36.4805 37.6261 36.4805 39.04V56.96C36.4805 58.3738 37.6266 59.52 39.0405 59.52H56.9605C58.3743 59.52 59.5205 58.3738 59.5205 56.96V39.04C59.5205 37.6261 58.3743 36.48 56.9605 36.48Z" stroke="#D9D2B0" stroke-width="2"/>
<path d="M58.8798 57.6001L55.8206 52.4993C55.7247 52.3393 55.595 52.2022 55.4407 52.0976C55.2863 51.993 55.1109 51.9234 54.9268 51.8936C54.7427 51.8639 54.5543 51.8747 54.3748 51.9254C54.1954 51.976 54.0291 52.0653 53.8878 52.187L51.6119 54.1377C51.4778 54.2528 51.3212 54.3388 51.1522 54.3904C50.9831 54.442 50.8052 54.4581 50.6296 54.4375C50.454 54.4169 50.2846 54.3602 50.1321 54.271C49.9795 54.1817 49.8471 54.0618 49.7431 53.9188L46.4906 49.4452C46.3711 49.2806 46.2139 49.1468 46.0323 49.0551C45.8507 48.9633 45.6499 48.9161 45.4464 48.9175C45.2429 48.9189 45.0427 48.9688 44.8624 49.063C44.682 49.1572 44.5267 49.293 44.4094 49.4593L37.7598 58.8801" stroke="#D9D2B0" stroke-width="2" stroke-linecap="round" stroke-linejoin="round"/>
<path d="M53.1196 46.72C54.5334 46.72 55.6796 45.5738 55.6796 44.16C55.6796 42.7461 54.5334 41.6 53.1196 41.6C51.7057 41.6 50.5596 42.7461 50.5596 44.16C50.5596 45.5738 51.7057 46.72 53.1196 46.72Z" stroke="#D9D2B0" stroke-width="2"/>
<rect x="52" y="48" width="16" height="16" rx="8" fill="#1D2B24"/>
<path fill-rule="evenodd" clip-rule="evenodd" d="M59.9997 62.6667C63.6817 62.6667 66.6663 59.682 66.6663 56C66.6663 52.318 63.6817 49.3334 59.9997 49.3334C56.3177 49.3334 53.333 52.318 53.333 56C53.333 59.682 56.3177 62.6667 59.9997 62.6667ZM59.333 53.3334C59.333 53.1566 59.4032 52.987 59.5283 52.862C59.6533 52.7369 59.8229 52.6667 59.9997 52.6667C60.1765 52.6667 60.3461 52.7369 60.4711 52.862C60.5961 52.987 60.6663 53.1566 60.6663 53.3334V55.3334H62.6663C62.8432 55.3334 63.0127 55.4036 63.1377 55.5286C63.2628 55.6537 63.333 55.8232 63.333 56C63.333 56.1769 63.2628 56.3464 63.1377 56.4714C63.0127 56.5965 62.8432 56.6667 62.6663 56.6667H60.6663V58.6667C60.6663 58.8435 60.5961 59.0131 60.4711 59.1381C60.3461 59.2631 60.1765 59.3334 59.9997 59.3334C59.8229 59.3334 59.6533 59.2631 59.5283 59.1381C59.4032 59.0131 59.333 58.8435 59.333 58.6667V56.6667H57.333C57.1562 56.6667 56.9866 56.5965 56.8616 56.4714C56.7366 56.3464 56.6663 56.1769 56.6663 56C56.6663 55.8232 56.7366 55.6537 56.8616 55.5286C56.9866 55.4036 57.1562 55.3334 57.333 55.3334H59.333V53.3334Z" fill="#D97904"/>
</svg>
