<svg width="147" height="165" viewBox="0 0 147 165" fill="none" xmlns="http://www.w3.org/2000/svg">
<g clip-path="url(#clip0_1956_6219)">
<g clip-path="url(#clip1_1956_6219)">
<path d="M84.1555 13.4188C66.8691 9.74448 49.8759 20.78 46.2016 38.0663C42.5272 55.3527 53.5628 72.3459 70.8491 76.0202C88.1354 79.6946 105.129 68.659 108.803 51.3727C112.477 34.0864 101.442 17.0931 84.1555 13.4188ZM91.7153 48.7962C90.3614 50.6387 88.6397 52.0951 86.8393 53.4708C83.3522 56.1327 79.5115 58.0473 75.2226 59.0397C74.9709 59.1084 74.7064 59.1159 74.4512 59.0617C74.196 59.0074 73.9574 58.893 73.7554 58.7279C69.02 55.154 65.762 50.4731 63.5665 45.0199C62.5072 42.3923 62.2158 39.6812 62.9007 36.8978C64.1428 31.8175 69.7697 28.919 74.6253 30.8751C76.3481 31.5534 77.8121 32.7592 78.808 34.32C79.0234 34.6533 79.2195 34.9991 79.4164 35.3234C80.3025 34.8344 81.0785 34.3157 81.9208 33.9542C87.8504 31.4051 94.4365 35.964 94.1245 42.4036C94.0084 44.7776 93.12 46.889 91.7153 48.7962Z" fill="#F72F42"/>
<path d="M91.7153 48.7962C90.3614 50.6387 88.6397 52.0951 86.8393 53.4708C83.3522 56.1327 79.5115 58.0473 75.2226 59.0397C74.9709 59.1084 74.7064 59.1159 74.4512 59.0617C74.196 59.0074 73.9574 58.893 73.7554 58.7279C69.02 55.154 65.762 50.4731 63.5665 45.0199C62.5072 42.3923 62.2158 39.6812 62.9007 36.8978C64.1428 31.8175 69.7697 28.919 74.6253 30.8751C76.3481 31.5534 77.8121 32.7592 78.808 34.32C79.0234 34.6533 79.2195 34.9991 79.4164 35.3234C80.3025 34.8344 81.0785 34.3157 81.9208 33.9542C87.8504 31.4051 94.4365 35.964 94.1245 42.4036C94.0084 44.7776 93.12 46.889 91.7153 48.7962Z" fill="white"/>
</g>
<g filter="url(#filter0_d_1956_6219)">
<path d="M58.3538 97.5117L58.0669 98.8614L51.8083 97.5311L52.0952 96.1814L58.3538 97.5117ZM54.7956 85.0833L52.135 97.6006L50.4758 97.2479L53.1364 84.7306L54.7956 85.0833ZM63.6074 90.3169L61.6302 99.6188L60.0312 99.2789L62.0084 89.977L63.6074 90.3169ZM62.4124 87.4841C62.4673 87.2262 62.5909 87.0248 62.7834 86.88C62.9817 86.7365 63.2356 86.6976 63.545 86.7634C63.8488 86.8279 64.062 86.9661 64.1848 87.1779C64.3132 87.3909 64.35 87.6263 64.2952 87.8843C64.2428 88.1307 64.1146 88.3251 63.9107 88.4674C63.7136 88.6053 63.4632 88.6419 63.1595 88.5773C62.85 88.5115 62.6333 88.3756 62.5093 88.1696C62.3924 87.959 62.3601 87.7305 62.4124 87.4841ZM68.7654 87.3339L65.9586 100.539L64.3596 100.199L67.1664 86.994L68.7654 87.3339ZM73.6184 92.4448L68.6378 95.9238L65.8675 97.7969L66.0986 96.0759L68.1364 94.4783L71.6755 92.0318L73.6184 92.4448ZM70.1883 101.438L67.8128 96.2965L68.9396 95.0534L72.0625 101.836L70.1883 101.438ZM77.1109 103.089C76.4633 102.951 75.8989 102.718 75.418 102.388C74.9439 102.053 74.5604 101.645 74.2674 101.164C73.9801 100.683 73.7947 100.147 73.711 99.554C73.6274 98.9611 73.655 98.338 73.7939 97.6846L73.8706 97.3236C74.0315 96.567 74.2864 95.9174 74.6354 95.3745C74.9856 94.826 75.3965 94.3862 75.8683 94.0552C76.34 93.7241 76.8419 93.5044 77.3742 93.3958C77.9064 93.2873 78.4333 93.2885 78.9549 93.3994C79.6197 93.5407 80.1685 93.7771 80.6012 94.1087C81.0396 94.4415 81.3697 94.8471 81.5915 95.3256C81.8145 95.7983 81.9414 96.3285 81.9723 96.9161C82.0043 97.498 81.9509 98.1156 81.812 98.769L81.6604 99.4825L74.714 98.006L74.9899 96.7079L80.3458 97.8463L80.3714 97.7259C80.4362 97.3084 80.4355 96.8889 80.3693 96.4675C80.3089 96.0474 80.1479 95.6777 79.8863 95.3585C79.6246 95.0393 79.2216 94.8218 78.6771 94.7061C78.316 94.6294 77.9672 94.6361 77.6305 94.7263C77.2951 94.8107 76.9868 94.9788 76.7057 95.2305C76.4245 95.4823 76.1781 95.8103 75.9664 96.2145C75.7546 96.6188 75.5891 97.1018 75.4697 97.6635L75.3929 98.0245C75.2991 98.4658 75.271 98.8942 75.3085 99.3095C75.353 99.7203 75.4616 100.097 75.6345 100.439C75.8131 100.782 76.0538 101.073 76.3566 101.311C76.6652 101.551 77.0372 101.717 77.4728 101.809C78.0345 101.929 78.5345 101.915 78.973 101.769C79.4115 101.622 79.8177 101.388 80.1916 101.066L80.9918 102.036C80.7266 102.297 80.4101 102.532 80.0421 102.742C79.6741 102.951 79.2455 103.094 78.7562 103.169C78.2726 103.246 77.7242 103.219 77.1109 103.089Z" fill="white"/>
</g>
</g>
<path d="M36.785 118.617C36.785 118.497 36.8328 118.382 36.9178 118.297C37.0028 118.212 37.1181 118.164 37.2383 118.164L52.5516 118.164L49.8647 116.073C49.7714 115.999 49.7112 115.891 49.6971 115.772C49.683 115.654 49.7162 115.535 49.7895 115.441C49.8627 115.346 49.9702 115.285 50.0885 115.269C50.2068 115.254 50.3264 115.286 50.4214 115.358L54.151 118.26C54.2055 118.302 54.2496 118.356 54.2799 118.418C54.3102 118.48 54.326 118.548 54.326 118.617C54.326 118.687 54.3102 118.755 54.2799 118.817C54.2496 118.879 54.2055 118.933 54.151 118.975L50.4213 121.875C50.3264 121.949 50.2061 121.982 50.0868 121.967C49.9675 121.952 49.859 121.89 49.7852 121.795C49.7114 121.7 49.6783 121.58 49.6932 121.461C49.7082 121.342 49.7698 121.233 49.8648 121.159L52.551 119.071L37.2383 119.071C37.1181 119.071 37.0029 119.023 36.9179 118.938C36.8329 118.853 36.7851 118.738 36.785 118.617ZM51.9035 138.645C51.8587 138.722 51.8379 138.811 51.8438 138.901C51.8496 138.99 51.8819 139.076 51.9364 139.147C51.9909 139.218 52.0654 139.272 52.1502 139.3C52.2351 139.329 52.3266 139.332 52.4132 139.309L57.2936 138.002C58.3089 137.73 59.2608 137.949 59.9064 138.602C60.4484 139.151 60.6834 139.915 60.5054 140.548C60.3519 141.094 59.9116 141.471 59.233 141.64C57.8868 141.974 55.5018 143.384 53.1961 144.748C51.5648 145.713 50.0244 146.623 49.2532 146.898C45.3486 148.291 40.9926 147.214 38.4142 144.217C34.8269 140.048 35.1236 133.269 39.2275 125.617C39.338 125.412 39.4889 125.232 39.6711 125.088C39.8533 124.943 40.0631 124.837 40.2875 124.775C40.5295 124.707 40.7827 124.687 41.0324 124.718C41.282 124.748 41.5231 124.828 41.7412 124.954C42.1576 125.196 42.4634 125.591 42.5938 126.054C42.7242 126.518 42.669 127.014 42.4398 127.438L41.7723 128.594C41.7137 128.698 41.6985 128.821 41.73 128.936C41.7614 129.051 41.837 129.149 41.9403 129.209C42.0436 129.269 42.1663 129.285 42.2818 129.255C42.3973 129.225 42.4962 129.15 42.5571 129.048L43.2033 127.929C43.2127 127.914 43.2208 127.898 43.2299 127.883L44.3902 125.872C44.636 125.448 45.0397 125.139 45.5128 125.013C45.9859 124.886 46.4899 124.953 46.9143 125.197C47.3369 125.443 47.6449 125.846 47.7712 126.318C47.8975 126.791 47.8318 127.294 47.5884 127.718L45.8271 130.77L45.8226 130.777C45.7919 130.829 45.7717 130.886 45.7632 130.946C45.7548 131.005 45.7582 131.066 45.7734 131.124C45.7885 131.182 45.8151 131.237 45.8515 131.284C45.8879 131.332 45.9335 131.372 45.9855 131.402C46.0376 131.432 46.0951 131.452 46.1546 131.459C46.2142 131.467 46.2748 131.463 46.3327 131.447C46.3906 131.431 46.4448 131.403 46.4921 131.366C46.5393 131.329 46.5788 131.283 46.6081 131.231L49.3996 126.396C49.6423 125.976 50.0405 125.669 50.508 125.54C50.9756 125.411 51.475 125.472 51.8985 125.708C52.3219 125.944 52.6354 126.338 52.7713 126.803C52.9071 127.269 52.8544 127.769 52.6246 128.196L49.7419 133.19C49.7122 133.241 49.6929 133.298 49.6851 133.357C49.6773 133.416 49.6812 133.476 49.6966 133.534C49.712 133.591 49.7386 133.645 49.7748 133.692C49.811 133.739 49.8562 133.779 49.9077 133.809C49.9592 133.839 50.0161 133.858 50.0751 133.866C50.1341 133.873 50.1941 133.87 50.2515 133.854C50.309 133.839 50.3629 133.812 50.4101 133.776C50.4573 133.74 50.497 133.695 50.5267 133.643L53.383 128.699C53.394 128.678 53.4056 128.658 53.4167 128.638L58.3735 120.054C58.6183 119.63 59.0216 119.32 59.4948 119.193C59.9679 119.066 60.472 119.133 60.8963 119.377C61.3205 119.622 61.6302 120.026 61.7571 120.499C61.884 120.972 61.8177 121.476 61.5729 121.9L51.9035 138.645ZM43.1464 144.443C40.8936 143.596 39.4509 141.954 38.8584 139.562C38.2374 137.054 38.6862 134.361 39.1725 132.542C39.2024 132.426 39.1853 132.304 39.125 132.2C39.0647 132.097 38.9661 132.022 38.8506 131.991C38.7351 131.96 38.612 131.976 38.5082 132.035C38.4044 132.095 38.3283 132.193 38.2964 132.308C37.7828 134.229 37.3114 137.085 37.9784 139.779C38.6473 142.479 40.2784 144.334 42.8271 145.292C42.883 145.313 42.9426 145.324 43.0025 145.322C43.0623 145.321 43.1213 145.307 43.176 145.283C43.2307 145.258 43.28 145.223 43.3211 145.18C43.3621 145.136 43.3942 145.085 43.4153 145.029C43.4364 144.973 43.4461 144.913 43.444 144.853C43.4419 144.793 43.4279 144.734 43.4029 144.68C43.3779 144.626 43.3424 144.577 43.2983 144.536C43.2543 144.495 43.2026 144.464 43.1464 144.443Z" fill="white"/>
<defs>
<filter id="filter0_d_1956_6219" x="30.4392" y="65.043" width="73.1343" height="59.8145" filterUnits="userSpaceOnUse" color-interpolation-filters="sRGB">
<feFlood flood-opacity="0" result="BackgroundImageFix"/>
<feColorMatrix in="SourceAlpha" type="matrix" values="0 0 0 0 0 0 0 0 0 0 0 0 0 0 0 0 0 0 127 0" result="hardAlpha"/>
<feOffset dy="1"/>
<feGaussianBlur stdDeviation="10"/>
<feComposite in2="hardAlpha" operator="out"/>
<feColorMatrix type="matrix" values="0 0 0 0 0 0 0 0 0 0 0 0 0 0 0 0 0 0 0.32 0"/>
<feBlend mode="normal" in2="BackgroundImageFix" result="effect1_dropShadow_1956_6219"/>
<feBlend mode="normal" in="SourceGraphic" in2="effect1_dropShadow_1956_6219" result="shape"/>
</filter>
<clipPath id="clip0_1956_6219">
<path d="M21.8518 0.175781L146.459 26.6619L128.787 109.804C127.868 114.126 123.62 116.885 119.298 115.966L10.3412 92.8068C6.01947 91.8882 3.2607 87.6401 4.17931 83.3183L21.8518 0.175781Z" fill="white"/>
</clipPath>
<clipPath id="clip1_1956_6219">
<rect width="64" height="64" fill="white" transform="translate(52.8547 6.76562) rotate(12)"/>
</clipPath>
</defs>
</svg>
