<svg width="120" height="78" viewBox="0 0 120 78" fill="none" xmlns="http://www.w3.org/2000/svg">
<g clip-path="url(#clip0_1956_6156)">
<g clip-path="url(#clip1_1956_6156)">
<path d="M60 0.5C46.7456 0.5 36 11.2456 36 24.5C36 37.7544 46.7456 48.5 60 48.5C73.2544 48.5 84 37.7544 84 24.5C84 11.2456 73.2544 0.5 60 0.5ZM71.0625 25.2744C70.3566 26.8372 69.3206 28.1741 68.2144 29.4641C66.0712 31.9606 63.5522 33.9641 60.5606 35.3609C60.3867 35.4506 60.1938 35.4973 59.9981 35.4973C59.8024 35.4973 59.6096 35.4506 59.4356 35.3609C55.4044 33.4775 52.2844 30.5516 49.8234 26.8934C48.6366 25.1309 48 23.1875 48.0684 21.0387C48.1875 17.1181 51.8634 14.1144 55.7306 14.7922C57.1002 15.0212 58.3623 15.6775 59.3363 16.6672C59.5462 16.8781 59.7441 17.1012 59.9391 17.3084C60.5128 16.8116 61.0013 16.31 61.5628 15.9134C65.5153 13.1188 71.0578 15.4363 71.8331 20.2091C72.1181 21.9688 71.7956 23.6562 71.0625 25.2744Z" fill="#FB4455"/>
<path d="M71.0625 25.2744C70.3566 26.8372 69.3206 28.1741 68.2144 29.4641C66.0712 31.9606 63.5522 33.9641 60.5606 35.3609C60.3867 35.4506 60.1938 35.4973 59.9981 35.4973C59.8024 35.4973 59.6096 35.4506 59.4356 35.3609C55.4044 33.4775 52.2844 30.5516 49.8234 26.8934C48.6366 25.1309 48 23.1875 48.0684 21.0387C48.1875 17.1181 51.8634 14.1144 55.7306 14.7922C57.1002 15.0212 58.3623 15.6775 59.3363 16.6672C59.5462 16.8781 59.7441 17.1012 59.9391 17.3084C60.5128 16.8116 61.0013 16.31 61.5628 15.9134C65.5153 13.1188 71.0578 15.4363 71.8331 20.2091C72.1181 21.9688 71.7956 23.6562 71.0625 25.2744Z" fill="white"/>
</g>
<g filter="url(#filter0_d_1956_6156)">
<path d="M52.2461 72.1201V73.5H45.8477V72.1201H52.2461ZM46.1816 60.7031V73.5H44.4854V60.7031H46.1816ZM55.889 63.9902V73.5H54.2542V63.9902H55.889ZM54.1312 61.4678C54.1312 61.2041 54.2103 60.9814 54.3685 60.7998C54.5325 60.6182 54.7728 60.5273 55.0892 60.5273C55.3997 60.5273 55.637 60.6182 55.8011 60.7998C55.971 60.9814 56.056 61.2041 56.056 61.4678C56.056 61.7197 55.971 61.9365 55.8011 62.1182C55.637 62.2939 55.3997 62.3818 55.0892 62.3818C54.7728 62.3818 54.5325 62.2939 54.3685 62.1182C54.2103 61.9365 54.1312 61.7197 54.1312 61.4678ZM60.3141 60V73.5H58.6793V60H60.3141ZM66.1237 63.9902L61.9752 68.4287L59.6549 70.8369L59.5231 69.1055L61.1842 67.1191L64.1373 63.9902H66.1237ZM64.6383 73.5L61.2457 68.9648L62.0895 67.5146L66.5543 73.5H64.6383ZM71.7529 73.6758C71.0908 73.6758 70.4902 73.5645 69.9511 73.3418C69.4179 73.1133 68.958 72.7939 68.5713 72.3838C68.1904 71.9736 67.8974 71.4873 67.6923 70.9248C67.4873 70.3623 67.3847 69.7471 67.3847 69.0791V68.71C67.3847 67.9365 67.499 67.248 67.7275 66.6445C67.956 66.0352 68.2666 65.5195 68.6591 65.0977C69.0517 64.6758 69.497 64.3564 69.9951 64.1396C70.4931 63.9229 71.0088 63.8145 71.542 63.8145C72.2216 63.8145 72.8076 63.9316 73.2998 64.166C73.7978 64.4004 74.205 64.7285 74.5214 65.1504C74.8379 65.5664 75.0722 66.0586 75.2246 66.627C75.3769 67.1895 75.4531 67.8047 75.4531 68.4727V69.2021H68.3515V67.875H73.8271V67.752C73.8037 67.3301 73.7158 66.9199 73.5634 66.5215C73.417 66.123 73.1826 65.7949 72.8603 65.5371C72.538 65.2793 72.0986 65.1504 71.542 65.1504C71.1728 65.1504 70.833 65.2295 70.5224 65.3877C70.2119 65.54 69.9453 65.7686 69.7226 66.0732C69.5 66.3779 69.3271 66.75 69.2041 67.1895C69.081 67.6289 69.0195 68.1357 69.0195 68.71V69.0791C69.0195 69.5303 69.081 69.9551 69.2041 70.3535C69.333 70.7461 69.5175 71.0918 69.7578 71.3906C70.0039 71.6895 70.2998 71.9238 70.6455 72.0938C70.997 72.2637 71.3955 72.3486 71.8408 72.3486C72.415 72.3486 72.9013 72.2314 73.2998 71.9971C73.6982 71.7627 74.0468 71.4492 74.3457 71.0566L75.33 71.8389C75.125 72.1494 74.8642 72.4453 74.5478 72.7266C74.2314 73.0078 73.8418 73.2363 73.3789 73.4121C72.9218 73.5879 72.3798 73.6758 71.7529 73.6758Z" fill="white"/>
</g>
</g>
<defs>
<filter id="filter0_d_1956_6156" x="24.4854" y="41" width="70.9678" height="53.6758" filterUnits="userSpaceOnUse" color-interpolation-filters="sRGB">
<feFlood flood-opacity="0" result="BackgroundImageFix"/>
<feColorMatrix in="SourceAlpha" type="matrix" values="0 0 0 0 0 0 0 0 0 0 0 0 0 0 0 0 0 0 127 0" result="hardAlpha"/>
<feOffset dy="1"/>
<feGaussianBlur stdDeviation="10"/>
<feComposite in2="hardAlpha" operator="out"/>
<feColorMatrix type="matrix" values="0 0 0 0 0 0 0 0 0 0 0 0 0 0 0 0 0 0 0.32 0"/>
<feBlend mode="normal" in2="BackgroundImageFix" result="effect1_dropShadow_1956_6156"/>
<feBlend mode="normal" in="SourceGraphic" in2="effect1_dropShadow_1956_6156" result="shape"/>
</filter>
<clipPath id="clip0_1956_6156">
<path d="M0 0.5H120V69.5C120 73.9183 116.418 77.5 112 77.5H8C3.58172 77.5 0 73.9183 0 69.5V0.5Z" fill="white"/>
</clipPath>
<clipPath id="clip1_1956_6156">
<rect width="48" height="48" fill="white" transform="translate(36 0.5)"/>
</clipPath>
</defs>
</svg>
