<svg width="20" height="20" viewBox="0 0 20 20" fill="none" xmlns="http://www.w3.org/2000/svg">
<path d="M8.33337 16.25C8.33337 16.9375 8.89587 17.5 9.58337 17.5C10.2709 17.5 10.8334 16.9375 10.8334 16.25C10.8334 15.5625 10.2709 15 9.58337 15C8.89587 15 8.33337 15.5625 8.33337 16.25Z" fill="#D9D2B0" stroke="#D9D2B0"/>
<path d="M8.33337 4.58301C8.33337 5.27051 8.89587 5.83301 9.58337 5.83301C10.2709 5.83301 10.8334 5.27051 10.8334 4.58301C10.8334 3.89551 10.2709 3.33301 9.58337 3.33301C8.89587 3.33301 8.33337 3.89551 8.33337 4.58301Z" fill="#D9D2B0" stroke="#D9D2B0"/>
<path d="M8.33337 10.417C8.33337 11.1045 8.89587 11.667 9.58337 11.667C10.2709 11.667 10.8334 11.1045 10.8334 10.417C10.8334 9.72949 10.2709 9.16699 9.58337 9.16699C8.89587 9.16699 8.33337 9.72949 8.33337 10.417Z" fill="#D9D2B0" stroke="#D9D2B0"/>
</svg>
