<svg width="24" height="24" viewBox="0 0 24 24" fill="none" xmlns="http://www.w3.org/2000/svg">
<g clip-path="url(#clip0_1128_2488)">
<path fill-rule="evenodd" clip-rule="evenodd" d="M12 0C8.8174 0 5.76516 1.26428 3.51472 3.51472C1.26428 5.76516 0 8.8174 0 12C0 15.1826 1.26428 18.2348 3.51472 20.4853C5.76516 22.7357 8.8174 24 12 24C15.1826 24 18.2348 22.7357 20.4853 20.4853C22.7357 18.2348 24 15.1826 24 12C24 8.8174 22.7357 5.76516 20.4853 3.51472C18.2348 1.26428 15.1826 0 12 0ZM9.67569 6.46154C9.78547 6.45711 9.89321 6.49215 9.97938 6.56031L16.4409 11.6372C16.4958 11.6804 16.5402 11.7355 16.5707 11.7984C16.6013 11.8612 16.6171 11.9301 16.6171 12C16.6171 12.0699 16.6013 12.1388 16.5707 12.2016C16.5402 12.2645 16.4958 12.3196 16.4409 12.3628C14.2874 14.0548 12.132 15.7458 9.97938 17.4378C9.9112 17.492 9.82909 17.5258 9.74253 17.5353C9.65596 17.5447 9.56849 17.5295 9.4902 17.4914C9.41191 17.4533 9.34601 17.3938 9.3001 17.3198C9.2542 17.2458 9.23016 17.1603 9.23077 17.0732V6.92308C9.23077 6.67385 9.42739 6.47169 9.67569 6.46154Z" fill="white"/>
</g>
<defs>
<clipPath id="clip0_1128_2488">
<rect width="24" height="24" fill="white"/>
</clipPath>
</defs>
</svg>
