<svg width="20" height="20" viewBox="0 0 20 20" fill="none" xmlns="http://www.w3.org/2000/svg">
<path d="M1.6665 7.50033V5.41699C1.6665 3.34199 3.3415 1.66699 5.4165 1.66699H7.49984" stroke="#D9D2B0" stroke-width="1.5" stroke-linecap="round" stroke-linejoin="round"/>
<path d="M12.5 1.66699H14.5833C16.6583 1.66699 18.3333 3.34199 18.3333 5.41699V7.50033" stroke="#D9D2B0" stroke-width="1.5" stroke-linecap="round" stroke-linejoin="round"/>
<path d="M18.3335 13.333V14.583C18.3335 16.658 16.6585 18.333 14.5835 18.333H13.3335" stroke="#D9D2B0" stroke-width="1.5" stroke-linecap="round" stroke-linejoin="round"/>
<path d="M7.49984 18.3333H5.4165C3.3415 18.3333 1.6665 16.6583 1.6665 14.5833V12.5" stroke="#D9D2B0" stroke-width="1.5" stroke-linecap="round" stroke-linejoin="round"/>
<path d="M8.75016 5.83301V7.49967C8.75016 8.33301 8.3335 8.74967 7.50016 8.74967H5.8335C5.00016 8.74967 4.5835 8.33301 4.5835 7.49967V5.83301C4.5835 4.99967 5.00016 4.58301 5.8335 4.58301H7.50016C8.3335 4.58301 8.75016 4.99967 8.75016 5.83301Z" stroke="#D9D2B0" stroke-width="1.5" stroke-linecap="round" stroke-linejoin="round"/>
<path d="M15.4167 5.83301V7.49967C15.4167 8.33301 15 8.74967 14.1667 8.74967H12.5C11.6667 8.74967 11.25 8.33301 11.25 7.49967V5.83301C11.25 4.99967 11.6667 4.58301 12.5 4.58301H14.1667C15 4.58301 15.4167 4.99967 15.4167 5.83301Z" stroke="#D9D2B0" stroke-width="1.5" stroke-linecap="round" stroke-linejoin="round"/>
<path d="M8.75016 12.5V14.1667C8.75016 15 8.3335 15.4167 7.50016 15.4167H5.8335C5.00016 15.4167 4.5835 15 4.5835 14.1667V12.5C4.5835 11.6667 5.00016 11.25 5.8335 11.25H7.50016C8.3335 11.25 8.75016 11.6667 8.75016 12.5Z" stroke="#D9D2B0" stroke-width="1.5" stroke-linecap="round" stroke-linejoin="round"/>
<path d="M15.4167 12.5V14.1667C15.4167 15 15 15.4167 14.1667 15.4167H12.5C11.6667 15.4167 11.25 15 11.25 14.1667V12.5C11.25 11.6667 11.6667 11.25 12.5 11.25H14.1667C15 11.25 15.4167 11.6667 15.4167 12.5Z" stroke="#D9D2B0" stroke-width="1.5" stroke-linecap="round" stroke-linejoin="round"/>
</svg>
