<svg width="20" height="20" viewBox="0 0 20 20" fill="none" xmlns="http://www.w3.org/2000/svg">
<path d="M1.66675 7.50033V5.41699C1.66675 3.34199 3.34175 1.66699 5.41675 1.66699H7.50008" stroke="white" stroke-width="1.5" stroke-linecap="round" stroke-linejoin="round"/>
<path d="M12.5 1.66699H14.5833C16.6583 1.66699 18.3333 3.34199 18.3333 5.41699V7.50033" stroke="white" stroke-width="1.5" stroke-linecap="round" stroke-linejoin="round"/>
<path d="M18.3333 13.333V14.583C18.3333 16.658 16.6583 18.333 14.5833 18.333H13.3333" stroke="white" stroke-width="1.5" stroke-linecap="round" stroke-linejoin="round"/>
<path d="M7.50008 18.3333H5.41675C3.34175 18.3333 1.66675 16.6583 1.66675 14.5833V12.5" stroke="white" stroke-width="1.5" stroke-linecap="round" stroke-linejoin="round"/>
<path d="M8.74992 5.83301V7.49967C8.74992 8.33301 8.33325 8.74967 7.49992 8.74967H5.83325C4.99992 8.74967 4.58325 8.33301 4.58325 7.49967V5.83301C4.58325 4.99967 4.99992 4.58301 5.83325 4.58301H7.49992C8.33325 4.58301 8.74992 4.99967 8.74992 5.83301Z" stroke="#D9D2B0" stroke-width="1.5" stroke-linecap="round" stroke-linejoin="round"/>
<path d="M15.4167 5.83301V7.49967C15.4167 8.33301 15 8.74967 14.1667 8.74967H12.5C11.6667 8.74967 11.25 8.33301 11.25 7.49967V5.83301C11.25 4.99967 11.6667 4.58301 12.5 4.58301H14.1667C15 4.58301 15.4167 4.99967 15.4167 5.83301Z" stroke="#D9D2B0" stroke-width="1.5" stroke-linecap="round" stroke-linejoin="round"/>
<path d="M8.74992 12.5V14.1667C8.74992 15 8.33325 15.4167 7.49992 15.4167H5.83325C4.99992 15.4167 4.58325 15 4.58325 14.1667V12.5C4.58325 11.6667 4.99992 11.25 5.83325 11.25H7.49992C8.33325 11.25 8.74992 11.6667 8.74992 12.5Z" stroke="#D9D2B0" stroke-width="1.5" stroke-linecap="round" stroke-linejoin="round"/>
<path d="M15.4167 12.5V14.1667C15.4167 15 15 15.4167 14.1667 15.4167H12.5C11.6667 15.4167 11.25 15 11.25 14.1667V12.5C11.25 11.6667 11.6667 11.25 12.5 11.25H14.1667C15 11.25 15.4167 11.6667 15.4167 12.5Z" stroke="#D9D2B0" stroke-width="1.5" stroke-linecap="round" stroke-linejoin="round"/>
</svg>
