<svg width="20" height="20" viewBox="0 0 20 20" fill="none" xmlns="http://www.w3.org/2000/svg">
<path d="M8.74166 1.85879L4.58334 3.41712C3.62501 3.77545 2.84167 4.90878 2.84167 5.93378V12.1254C2.84167 13.1088 3.49168 14.4004 4.28335 14.9921L7.86667 17.6671C9.04167 18.5505 10.975 18.5505 12.15 17.6671L15.7333 14.9921C16.525 14.4004 17.175 13.1088 17.175 12.1254V5.93378C17.175 4.90878 16.3917 3.77545 15.4333 3.41712L11.275 1.85879C10.5667 1.60046 9.43333 1.60046 8.74166 1.85879Z" stroke="white" stroke-width="1.5" stroke-linecap="round" stroke-linejoin="round"/>
<path d="M10.0001 9.10034C9.96674 9.10034 9.92507 9.10034 9.89173 9.10034C9.1084 9.07534 8.4834 8.42533 8.4834 7.63367C8.4834 6.82533 9.14174 6.16699 9.95007 6.16699C10.7584 6.16699 11.4167 6.82533 11.4167 7.63367C11.4084 8.43367 10.7834 9.07534 10.0001 9.10034Z" stroke="white" stroke-width="1.5" stroke-linecap="round" stroke-linejoin="round"/>
<path d="M8.3417 11.4338C7.5417 11.9671 7.5417 12.8421 8.3417 13.3754C9.25003 13.9838 10.7417 13.9838 11.65 13.3754C12.45 12.8421 12.45 11.9671 11.65 11.4338C10.75 10.8255 9.25837 10.8255 8.3417 11.4338Z" stroke="white" stroke-width="1.5" stroke-linecap="round" stroke-linejoin="round"/>
</svg>
