<svg width="20" height="20" viewBox="0 0 20 20" fill="none" xmlns="http://www.w3.org/2000/svg">
<path d="M8.74167 1.85879L4.58334 3.42546C3.62501 3.78379 2.84167 4.91712 2.84167 5.93379V12.1255C2.84167 13.1088 3.49167 14.4005 4.28334 14.9921L7.86667 17.6671C9.04167 18.5505 10.975 18.5505 12.15 17.6671L15.7333 14.9921C16.525 14.4005 17.175 13.1088 17.175 12.1255V5.93379C17.175 4.90879 16.3917 3.77546 15.4333 3.41712L11.275 1.85879C10.5667 1.60046 9.43334 1.60046 8.74167 1.85879Z" stroke="white" stroke-width="1.5" stroke-linecap="round" stroke-linejoin="round"/>
<path d="M10 10.4163C10.9205 10.4163 11.6667 9.67015 11.6667 8.74967C11.6667 7.8292 10.9205 7.08301 10 7.08301C9.07957 7.08301 8.33337 7.8292 8.33337 8.74967C8.33337 9.67015 9.07957 10.4163 10 10.4163Z" stroke="white" stroke-width="1.5" stroke-miterlimit="10" stroke-linecap="round" stroke-linejoin="round"/>
<path d="M10 10.417V12.917" stroke="white" stroke-width="1.5" stroke-miterlimit="10" stroke-linecap="round" stroke-linejoin="round"/>
</svg>
