<svg width="32" height="32" viewBox="0 0 32 32" fill="none" xmlns="http://www.w3.org/2000/svg">
<path d="M21.5199 3.94672L9.47991 7.94673C1.38658 10.6534 1.38658 15.0667 9.47991 17.7601L13.0532 18.9467L14.2399 22.5201C16.9332 30.6134 21.3599 30.6134 24.0532 22.5201L28.0666 10.4934C29.8532 5.09339 26.9199 2.14672 21.5199 3.94672ZM21.9466 11.1201L16.8799 16.2134C16.6799 16.4134 16.4266 16.5067 16.1732 16.5067C15.9199 16.5067 15.6666 16.4134 15.4666 16.2134C15.0799 15.8267 15.0799 15.1867 15.4666 14.8001L20.5332 9.70673C20.9199 9.32006 21.5599 9.32006 21.9466 9.70673C22.3332 10.0934 22.3332 10.7334 21.9466 11.1201Z" fill="#D9D2B0"/>
</svg>
