<svg width="32" height="32" viewBox="0 0 32 32" fill="none" xmlns="http://www.w3.org/2000/svg">
<path d="M28 7.97331C23.56 7.53331 19.0933 7.30664 14.64 7.30664C12 7.30664 9.36 7.43997 6.72 7.70664L4 7.97331" stroke="white" stroke-width="2.5" stroke-linecap="round" stroke-linejoin="round"/>
<path d="M11.3333 6.62699L11.6266 4.88033C11.8399 3.61366 11.9999 2.66699 14.2533 2.66699H17.7466C19.9999 2.66699 20.1733 3.66699 20.3733 4.89366L20.6666 6.62699" stroke="white" stroke-width="2.5" stroke-linecap="round" stroke-linejoin="round"/>
<path d="M25.1334 12.1865L24.2667 25.6132C24.12 27.7065 24 29.3332 20.28 29.3332H11.72C8.00003 29.3332 7.88003 27.7065 7.73337 25.6132L6.8667 12.1865" stroke="white" stroke-width="2.5" stroke-linecap="round" stroke-linejoin="round"/>
<path d="M13.7734 22H18.2134" stroke="white" stroke-width="2.5" stroke-linecap="round" stroke-linejoin="round"/>
<path d="M12.6667 16.667H19.3334" stroke="white" stroke-width="1.5" stroke-linecap="round" stroke-linejoin="round"/>
</svg>
