<svg width="16" height="17" viewBox="0 0 16 17" fill="none" xmlns="http://www.w3.org/2000/svg">
<path d="M14 4.48665C11.78 4.26665 9.54667 4.15332 7.32 4.15332C6 4.15332 4.68 4.21999 3.36 4.35332L2 4.48665" stroke="#FF626E" stroke-width="1.5" stroke-linecap="round" stroke-linejoin="round"/>
<path d="M5.66663 3.81301L5.81329 2.93967C5.91996 2.30634 5.99996 1.83301 7.12663 1.83301H8.87329C9.99996 1.83301 10.0866 2.33301 10.1866 2.94634L10.3333 3.81301" stroke="#FF626E" stroke-width="1.5" stroke-linecap="round" stroke-linejoin="round"/>
<path d="M12.5667 6.59375L12.1334 13.3071C12.06 14.3537 12 15.1671 10.14 15.1671H5.86002C4.00002 15.1671 3.94002 14.3537 3.86668 13.3071L3.43335 6.59375" stroke="#FF626E" stroke-width="1.5" stroke-linecap="round" stroke-linejoin="round"/>
<path d="M6.88672 11.5H9.10672" stroke="#FF626E" stroke-width="1.5" stroke-linecap="round" stroke-linejoin="round"/>
<path d="M6.33337 8.83301H9.66671" stroke="#FF626E" stroke-width="1.5" stroke-linecap="round" stroke-linejoin="round"/>
</svg>
