<svg width="24" height="24" viewBox="0 0 24 22" fill="none" xmlns="http://www.w3.org/2000/svg">
<path d="M21.56 11.2401L20.2 9.66006C19.94 9.36006 19.73 8.80006 19.73 8.40006V6.70006C19.73 5.64006 18.86 4.77006 17.8 4.77006H16.1C15.71 4.77006 15.14 4.56006 14.84 4.30006L13.26 2.94006C12.57 2.35006 11.44 2.35006 10.74 2.94006L9.17 4.31006C8.87 4.56006 8.3 4.77006 7.91 4.77006H6.18C5.12 4.77006 4.25 5.64006 4.25 6.70006V8.41006C4.25 8.80006 4.04 9.36006 3.79 9.66006L2.44 11.2501C1.86 11.9401 1.86 13.0601 2.44 13.7501L3.79 15.3401C4.04 15.6401 4.25 16.2001 4.25 16.5901V18.3001C4.25 19.3601 5.12 20.2301 6.18 20.2301H7.91C8.3 20.2301 8.87 20.4401 9.17 20.7001L10.75 22.0601C11.44 22.6501 12.57 22.6501 13.27 22.0601L14.85 20.7001C15.15 20.4401 15.71 20.2301 16.11 20.2301H17.81C18.87 20.2301 19.74 19.3601 19.74 18.3001V16.6001C19.74 16.2101 19.95 15.6401 20.21 15.3401L21.57 13.7601C22.15 13.0701 22.15 11.9301 21.56 11.2401ZM16.16 10.6101L11.33 15.4401C11.19 15.5801 11 15.6601 10.8 15.6601C10.6 15.6601 10.41 15.5801 10.27 15.4401L7.85 13.0201C7.56 12.7301 7.56 12.2501 7.85 11.9601C8.14 11.6701 8.62 11.6701 8.91 11.9601L10.8 13.8501L15.1 9.55006C15.39 9.26006 15.87 9.26006 16.16 9.55006C16.45 9.84006 16.45 10.3201 16.16 10.6101Z" fill="#D97904"/>
</svg>
