<svg width="220" height="207" viewBox="0 0 220 207" fill="none" xmlns="http://www.w3.org/2000/svg">
    <path d="M83.2434 78.9491C83.1556 78.9352 83.0633 78.9213 82.9663 78.8981C82.9848 78.7822 82.9987 78.6616 83.0079
    78.555C83.0864 78.6894 83.1556 78.8193 83.2434 78.9491Z" fill="#D9D2B0" stroke="#17261E" stroke-miterlimit="10"/>
    <path d="M128.409 110.405C127.236 110.238 126.114 110.034 124.987 109.714C126.086 109.871 127.176 110.075 128.409
    110.405Z" fill="#D9D2B0" stroke="#17261E" stroke-miterlimit="10"/>
    <path d="M94.2969 135.944C94.3708 134.641 94.5555 133.329 94.8094 132.054C94.7217 133.366 94.5555 134.664 94.2969
    135.944Z" fill="#D9D2B0" stroke="#17261E" stroke-miterlimit="10"/>
    <path d="M82.9246 79.2041C82.823 79.0789 82.7353 78.9491 82.6429 78.8332C82.7491 78.861 82.8645 78.8795 82.9615
    78.9027C82.9569 79.0001 82.943 79.1067 82.92 79.2041H82.9246Z" fill="#D9D2B0" stroke="#17261E"
        stroke-miterlimit="10"/>

    <!-- Line 1 -->
    <path id="1-1" d="M95.1602 53.795C94.8693 53.5446 94.5692 53.3035 94.2737 53.0763C91.7435 42.194 84.9885 31.7243 75.214
    25.0104C75.7357 22.0846 76.5252 19.2191 77.5687 16.4371H77.5826C79.8542 10.414 83.294 4.92881 87.7912
    0.27356C94.6846 3.49607 102.843 9.80198 107.391 16.9008C98.3368 26.7259 93.7843 40.483 95.1602 53.7904V53.795Z"
        fill="#D9D2B0" stroke="#17261E" stroke-miterlimit="10"/>

    <path id="1-2" d="M61.104 67.9416C60.7669 67.9277 60.3883 67.9323 59.9727 67.9416C46.4952 58.4781 31.0599 59.0901 24.3511
    59.9618C20.3618 50.0161 20.1125 38.7072 23.1783 28.8171C32.7082 26.1324 41.2085 27.0458 45.1238 27.797C44.8791
    30.5234 44.8838 33.2776 45.1146 36.0086L45.1054 36.0179C46.0796 48.1985 51.9204 59.9015 61.104 67.937V67.9416Z"
        fill="#D9D2B0" stroke="#17261E" stroke-miterlimit="10"/>

    <path id="1-3" d="M45.5809 112.06C44.8514 112.88 44.1912 113.766 43.6048 114.666C40.2435 115.922 35.9218 117.962 31.577
    121.148C19.5446 119.965 8.14011 113.975 0.295502 104.646C3.2228 100.677 6.75496 97.1712 10.7811 94.2779C19.1383
    104.799 32.1726 111.503 45.5856 112.06H45.5809Z" fill="#D9D2B0" stroke="#17261E" stroke-miterlimit="10"/>

    <path id="1-4" d="M56.8884 175.954C48.2034 179.793 38.2719 180.823 29.2129 178.986C26.0733 170.974 25.2745 162.559 26.5257
    154.532C38.9737 156.086 51.8095 152.678 61.9396 144.633C61.9488 145.913 62.0458 147.188 62.2305 148.463C57.6456
    157.05 55.9142 166.653 56.8884 175.954Z" fill="#D9D2B0" stroke="#17261E" stroke-miterlimit="10"/>

    <path id="1-5" d="M118.546 173.255C118.491 173.529 118.422 173.812 118.343 174.081C118.196 174.6 118.048 175.124
    117.891 175.643C115.227 184.425 109.88 192.507 102.691 198.354C99.893 196.541 97.2843 194.431 94.9157
    192.02C95.3682 191.519 95.8206 191.023 96.227 190.504C96.3054 190.434 96.3608 190.356 96.407 190.291C96.5871
    190.096 96.7348 189.906 96.8918 189.711C97.0488 189.507 97.2196 189.303 97.3766 189.099C97.4874 188.951
    97.6029 188.802 97.7275 188.645C98.1015 188.158 98.4617 187.671 98.7987 187.161C98.8218 187.138 98.8449
    187.105 98.868 187.068C99.2651 186.502 99.6483 185.937 100.008 185.348C100.29 184.917 100.562 184.476
    100.812 184.022C101.592 182.719 102.303 181.37 102.931 179.997C103.18 179.487 103.416 178.968 103.619
    178.444C103.665 178.365 103.698 178.295 103.721 178.217C104.002 177.549 104.261 176.881 104.51 176.209C104.621
    175.912 104.723 175.62 104.824 175.323C104.87 175.189 104.916 175.064 104.958 174.925C104.967 174.915 104.967
    174.901 104.967 174.892C105.013 174.767 105.06 174.642 105.092 174.517C105.138 174.368 105.184 174.234 105.226
    174.099C105.351 173.7 105.461 173.306 105.577 172.921C105.586 172.898 105.6 172.866 105.6 172.829C105.951 171.605
    106.255 170.357 106.505 169.11C106.528 169.017 106.537 168.929 106.56 168.827C106.662 168.294 106.763 167.761
    106.842 167.228C106.92 166.718 106.999 166.217 107.054 165.711C107.077 165.577 107.087 165.438 107.1
    165.303C107.17 164.84 107.211 164.376 107.248 163.898C107.257 163.806 107.271 163.704 107.271 163.616C107.294
    163.421 107.304 163.24 107.317 163.05C107.35 162.54 107.373 162.03 107.396 161.52C108.458 162.187 109.575
    162.767 110.702 163.286C111.459 162.447 112.156 161.575 112.789 160.667C113.015 160.361 113.218 160.055
    113.407 159.749C113.666 159.35 113.915 158.956 114.128 158.557C114.276 158.33 114.409 158.093 114.534
    157.843C114.714 157.528 114.885 157.198 115.042 156.869C115.37 156.211 115.675 155.543 115.933 154.861C116.067
    154.523 116.206 154.171 116.316 153.832C116.418 153.582 116.496 153.322 116.575 153.072C116.667 152.789 116.755
    152.506 116.833 152.209C116.912 151.959 116.981 151.699 117.037 151.449C117.092 151.268 117.138 151.073 117.184
    150.892C117.263 150.554 117.341 150.202 117.411 149.849C117.48 149.474 117.544 149.103 117.605 148.727C117.651
    148.412 117.697 148.092 117.738 147.763C117.748 147.67 117.762 147.568 117.771 147.48V147.457C117.863 146.641
    117.918 145.815 117.942 144.985C117.965 144.1 117.942 143.228 117.886 142.347C118.777 146.71 119.387 151.426
    119.622 156.048C119.959 162.303 119.645 168.401 118.537 173.241L118.546 173.255Z"
        fill="#D9D2B0" stroke="#17261E" stroke-miterlimit="10"/>

    <path id="1-6" d="M147.454 191.375C136.225 189.994 125.44 184.272 117.886 175.648C118.043 175.138 118.2 174.618 118.338
    174.085C118.417 173.812 118.486 173.529 118.541 173.26C119.65 168.419 119.964 162.322 119.627 156.067C119.391
    151.444 118.782 146.729 117.89 142.366C116.93 137.72 115.647 133.468 114.086 130.139V130.129L114.64
    130.106C114.797 130.31 114.968 130.523 115.139 130.727C115.208 130.797 115.263 130.876 115.333 130.941C115.342
    130.95 115.356 130.973 115.365 130.987C115.614 131.302 115.882 131.608 116.187 131.914C116.898 132.684 117.664
    133.412 118.468 134.103C119.677 135.114 120.961 136.027 122.314 136.834C123.025 137.251 123.759 137.641 124.516
    137.989C124.992 138.225 125.477 138.443 125.961 138.624C126.649 138.921 127.36 139.18 128.081 139.417C129.041
    139.723 130.011 139.982 131.003 140.186C131.604 140.312 132.199 140.414 132.809 140.492C132.841 140.502 132.887
    140.502 132.919 140.516C133.03 140.525 133.155 140.548 133.27 140.562C134.06 140.655 134.863 140.72 135.662
    140.743C136.904 140.798 138.155 140.752 139.407 140.608C139.61 140.599 139.813 140.576 140.016 140.539C140.33
    140.506 140.658 140.46 140.976 140.404L140.986 140.414C152.824 154.704 155.285 174.651 147.45 191.375H147.454Z"
        fill="#D9D2B0" stroke="#17261E" stroke-miterlimit="10"/>
    <!-- Line 1 -->

    <!-- Line 2 -->
    <path id="2-1" d="M133.899 55.9604C133.746 55.4458 133.571 54.9404 133.382 54.435C120.961 53.2526 105.863 64.7331 104.639
    78.1285C104.538 78.0033 104.436 77.8782 104.349 77.7483C105.415 69.0962 101.906 59.5446 95.1603 53.7997C91.6328
     31.7522 110.309 7.09879 130.454 2.86548C142.113 18.0924 143.595 39.1941 133.903 55.9604H133.899Z"
        fill="#D9D2B0" stroke="#17261E" stroke-miterlimit="10"/>

    <path id="2-2" d="M82.9616 78.8982C82.8647 78.875 82.7493 78.8565 82.6431 78.8286C74.2952 68.6789 63.4541 68.141 61.1039
    67.9416C51.9204 59.9062 46.0796 48.2032 45.1054 36.0225L45.1146 36.0133C44.5652 29.4987 45.3316 22.9702 47.4047
    16.7385C67.9697 15.5561 90.3907 32.3271 94.2737 53.081C90.9909 50.4566 87.3018 48.8338 84.3468 47.9157C78.0259
    56.8553 77.2871 68.8643 83.0124 78.5597C82.9986 78.6664 82.9893 78.7869 82.9709 78.9028L82.9616 78.8982Z"
        fill="#D9D2B0" stroke="#17261E" stroke-miterlimit="10"/>

    <path id="2-3" d="M73.6582 102.675C73.5474 102.833 73.4088 102.99 73.2842 103.153C65.8228 100.626 52.7977 103.218 45.581
    112.06C23.4692 111.429 3.55986 93.1559 0.747986 71.2846C19.2122 56.883 36.836 54.6295 59.982 67.9415C57.2856
    68.0203 53.144 68.5535 48.8084 70.5241C46.1304 85.7325 58.209 101.507 73.6582 102.675Z"
        fill="#D9D2B0" stroke="#17261E" stroke-miterlimit="10"/>

    <path id="2-4" d="M78.52 118.746C68.2837 123.123 61.7088 133.996 61.9443 144.628C48.005 155.715 28.899 157.949 12.9097
    150.712C15.3614 134.752 28.9867 119.548 43.6048 114.661C43.0415 115.5 42.5197 116.349 42.058 117.244C51.2601
    125.414 65.4903 126.624 75.9805 119.497C76.8624 119.377 77.6981 119.066 78.52 118.737V118.746Z"
        fill="#D9D2B0" stroke="#17261E" stroke-miterlimit="10"/>

    <path id="2-5" d="M107.396 161.529C107.387 162.039 107.35 162.549 107.317 163.059C107.308 163.254 107.294 163.444
    107.271 163.625C107.271 163.717 107.262 163.819 107.248 163.907C107.216 164.371 107.17 164.849 107.1
    165.312C107.091 165.447 107.077 165.586 107.054 165.72C106.999 166.23 106.92 166.74 106.842 167.237C106.763
    167.77 106.662 168.312 106.56 168.836C106.537 168.938 106.528 169.031 106.505 169.119C106.255 170.376 105.951
    171.614 105.6 172.838C105.6 172.87 105.591 172.907 105.577 172.93C105.406 173.519 105.226 174.099 105.037
    174.674C104.653 175.875 104.215 177.053 103.716 178.221C103.693 178.3 103.661 178.369 103.614 178.448C103.402
    178.967 103.162 179.491 102.926 180.001C102.294 181.374 101.583 182.723 100.807 184.026C100.558 184.467 100.29
    184.921 100.004 185.352C99.6436 185.932 99.2604 186.507 98.8633 187.072C98.8402 187.105 98.8171 187.142 98.794
    187.165C98.457 187.666 98.0922 188.162 97.7229 188.649C97.5982 188.807 97.4874 188.955 97.372 189.103C97.215
    189.307 97.0441 189.511 96.8871 189.715C96.7302 189.91 96.5824 190.1 96.4023 190.295C96.3562 190.365 96.3008
    190.443 96.2223 190.508C95.8159 191.028 95.3635 191.528 94.911 192.024C88.6362 198.915 80.3991 203.797 71.788
    205.999C63.0984 197.932 57.9964 187.072 56.8698 175.787C56.7913 175.003 56.7359 174.233 56.6898 173.454C56.6667
    173.125 56.6575 172.796 56.6436 172.458C56.3943 164.32 58.1904 156.081 62.175 148.592C62.1842 148.546 62.2073
    148.514 62.2304 148.467C62.7291 151.912 63.8557 155.302 65.6933 158.473C67.1708 158.543 68.6622 158.483 70.1489
    158.302C70.5552 158.255 70.9615 158.2 71.3679 158.13C72.7576 157.917 74.1336 157.574 75.4864 157.133C75.9943
    156.962 76.493 156.795 77.0009 156.591C77.7581 156.294 78.5014 155.969 79.2356 155.594C80.2514 155.107 81.2348
    154.551 82.1675 153.929C82.3614 153.804 82.5507 153.679 82.7447 153.544C82.9709 153.387 83.1971 153.229 83.4095
    153.067C84.2776 152.422 85.1133 151.731 85.9028 150.994C86.4892 150.438 87.0525 149.863 87.5973 149.26C88.3638
    148.398 89.0748 147.503 89.7305 146.562C91.9975 143.344 93.5766 139.681 94.2877 135.953C93.9737 139.773 94.6155
    143.738 96.0237 147.466C97.7598 152.079 100.673 156.303 104.432 159.433C104.464 159.456 104.501 159.479 104.533
    159.512C105.355 160.18 106.214 160.792 107.105 161.348C107.197 161.418 107.299 161.473 107.387 161.529H107.396Z"
        fill="#D9D2B0" stroke="#17261E" stroke-miterlimit="10"/>
    <!-- Line 2 -->

    <!-- Line 3 -->
    <path id="3-1" d="M122.873 87.5688C119.918 89.5858 116.575 91.0324 113.098 91.7836C110.873 89.1824 107.715 87.1608
    104.524 86.2149C101.384 69.7407 117.655 53.0208 133.377 54.435C137.902 66.291 133.516 80.4932 122.868
    87.5688H122.873Z" fill="#D9D2B0" stroke="#17261E" stroke-miterlimit="10"/>

    <path id="3-2" d="M104.529 86.215C98.8448 84.4391 92.3992 85.6215 87.7035 89.3076C81.7012 75.3929 73.7181 62.4287 84.3469
    47.9158C96.6193 50.976 106.343 64.849 104.353 77.7483C104.441 77.8782 104.542 78.0034 104.644 78.1285C104.215
    80.7993 104.164 83.5118 104.533 86.215H104.529Z" fill="#D9D2B0" stroke="#17261E" stroke-miterlimit="10"/>

    <path id="3-3" d="M87.6943 89.3028C82.657 93.1513 79.8451 99.7632 80.5839 106.088C74.9786 102.925 68.9347 102.531 63.3756
    99.536C53.0562 94.278 46.9154 81.8517 48.8084 70.5242C54.2567 68.2012 57.8719 67.8488 62.0136 67.974C67.2818
    67.2553 85.7921 75.5875 87.699 89.3028H87.6943Z" fill="#D9D2B0" stroke="#17261E" stroke-miterlimit="10"/>

    <path id="3-4" d="M85.3256 116.697C82.9755 117.123 80.7823 117.735 78.5199 118.746C77.698 119.071 76.8623 119.386 75.9804
    119.506C65.4856 126.633 51.2601 125.423 42.058 117.253C49.681 102.439 68.6207 98.5346 80.5838 106.092C80.9855
    109.992 82.6569 113.775 85.3256 116.701V116.697Z" fill="#D9D2B0" stroke="#17261E" stroke-miterlimit="10"/>

    <path id="3-5" d="M94.8139 132.049C94.1352 141.795 88.4884 151.115 79.2401 155.585C74.9461 157.746 70.2689 158.664
    65.6886 158.464C55.7986 142.342 66.3858 119.344 85.3256 116.692C87.5326 119.117 90.4645 121.009 93.5858
    121.95C94.6062 125.2 95.0032 128.65 94.8139 132.049Z" fill="#D9D2B0" stroke="#17261E" stroke-miterlimit="10"/>

    <path id="3-6" d="M117.946 145.004C117.923 145.829 117.868 146.659 117.775 147.475V147.499C117.766 147.591 117.752 147.693
    117.743 147.781C117.711 148.111 117.665 148.426 117.609 148.746C117.554 149.121 117.485 149.492 117.415
    149.868C117.346 150.22 117.268 150.573 117.189 150.911C117.143 151.092 117.097 151.287 117.041 151.468C116.986
    151.718 116.917 151.978 116.838 152.228C116.76 152.525 116.667 152.808 116.58 153.09C116.501 153.35 116.409 153.6
    116.321 153.851C116.21 154.189 116.072 154.542 115.938 154.88C115.679 155.562 115.374 156.229 115.047
    156.888C114.89 157.217 114.719 157.546 114.539 157.862C114.414 158.098 114.28 158.339 114.132 158.576C113.92
    158.974 113.671 159.369 113.412 159.767C113.218 160.073 113.006 160.379 112.793 160.685C112.161 161.594 111.464
    162.466 110.707 163.305C109.58 162.786 108.463 162.206 107.401 161.539C107.308 161.483 107.207 161.427 107.119
    161.358C106.196 160.755 105.337 160.143 104.547 159.522C104.515 159.489 104.478 159.466 104.446 159.443C99.6483
    155.682 97.2566 151.704 96.0377 147.475C94.8095 143.224 94.7495 138.74 94.6387 133.955V133.922C94.6294 133.686
    94.6294 133.459 94.6156 133.231C94.5232 129.675 94.357 125.956 93.609 122.071C93.5998 122.038 93.5998 122.001
    93.5859 121.969C95.1189 122.456 96.7118 122.729 98.3047 122.794H98.6325C101.126 122.864 103.633 122.419 105.946
    121.5C107.064 122.238 108.149 123.086 109.151 124.018C109.4 124.245 109.649 124.473 109.885 124.709V124.718C111.501
    126.272 112.964 128.173 114.096 130.134V130.143C116.339 133.987 117.605 138.179 117.9 142.37C117.956
    143.256 117.979 144.128 117.956 145.009L117.946 145.004Z" fill="#D9D2B0" stroke="#17261E" stroke-miterlimit="10"/>

    <path id="3-7" d="M148.281 127.245C143.045 114.373 129.443 107.66 116.704 110.154C115.014 115.254 110.919 119.543
    105.937 121.486C107.336 122.409 108.665 123.508 109.875 124.695V124.704C111.491 126.253 112.95 128.158
    114.086 130.12L114.64 130.097C122.776 140.766 138.668 143.932 150.257 137.168C150.211 133.815 149.555
    130.458 148.281 127.24V127.245Z" fill="#D9D2B0" stroke="#17261E" stroke-miterlimit="10"/>
    <!-- Line 3 -->

    <!-- Center -->
    <path id="center" d="M117.678 105.137C117.378 119.673 98.9602 128.177 87.7727 118.941C76.7007 111.003 78.8246 92.3493 91.351
    87.0959C91.351 87.0959 91.351 87.0866 91.3603 87.0959C103.48 81.045 118.879 91.5703 117.678 105.137Z"
        fill="#D97904" stroke="#17261E" stroke-miterlimit="10"/>
    <!-- Center -->

    <!-- extras -->
    <path id="e-1" d="M202.27 97.9321C189.596 102.008 178.722 109.037 166.75 98.3865C173.006 86.2244 188.557 83.0204 198.382
    89.2197C198.71 92.4237 200.082 95.5256 202.275 97.9275L202.27 97.9321Z"
        fill="#D9D2B0" stroke="#17261E" stroke-miterlimit="10"/>

    <path id="e-2" d="M216.731 119.33C219.437 124.115 220.425 129.735 219.34 135.276C218.324 135.387 217.294 135.457 216.269
    135.438H216.26C200.285 135.345 198.248 122.988 189.878 113.46C193.239 112.649 196.277 110.636 198.378
    107.882C199.749 107.938 201.148 108.146 202.501 108.466V108.476C204.297 108.879 206.125 109.602 207.751
    110.497V110.506C211.624 112.621 214.681 115.704 216.736 119.33H216.731Z"
        fill="#D9D2B0" stroke="#17261E" stroke-miterlimit="10"/>

    <path id="e-3" d="M187.273 127.607C186.826 139.574 175.532 150.174 163.361 149.293C155.239 136.055 163.933 117.174 179.484
    115C181.299 116.994 183.704 118.542 186.267 119.317C187.103 121.983 187.43 124.82 187.278 127.607H187.273Z"
        fill="#D9D2B0" stroke="#17261E" stroke-miterlimit="10"/>

    <path id="e-4" d="M214.704 167.019C215.17 155.613 207.298 145.936 196.942 143.432C193.945 146.659 189.429 148.458 185.048
    148.203C190.136 162.331 194.559 176.204 212.802 175.11C213.91 172.592 214.561 169.861 214.704 167.019Z"
        fill="#D9D2B0" stroke="#17261E" stroke-miterlimit="10"/>
    <!-- extras -->
</svg>
