<svg width="200" height="200" viewBox="0 0 200 200" fill="none" xmlns="http://www.w3.org/2000/svg">
<path d="M47.3371 151.017H29.1938C27.6497 151.017 26.3938 152.273 26.3938 153.817V171.961C26.3938 173.505 27.6497 174.761 29.1938 174.761H47.3375C48.8817 174.761 50.1375 173.505 50.1375 171.961V153.817C50.1371 152.273 48.8813 151.017 47.3371 151.017ZM42.4883 164.959C42.4883 166.148 41.5246 167.112 40.3356 167.112H36.1954C35.0063 167.112 34.0426 166.148 34.0426 164.959V160.818C34.0426 159.629 35.0063 158.666 36.1954 158.666H40.3356C41.5246 158.666 42.4883 159.629 42.4883 160.818V164.959ZM29.1938 51.1421H47.3375C48.8817 51.1421 50.1375 49.8862 50.1375 48.3421V30.1984C50.1375 28.6543 48.8817 27.3984 47.3375 27.3984H29.1938C27.6497 27.3984 26.3938 28.6543 26.3938 30.1984V48.3421C26.3938 49.8859 27.6497 51.1421 29.1938 51.1421ZM34.0426 37.2C34.0426 36.0109 35.0063 35.0472 36.1954 35.0472H40.3356C41.5246 35.0472 42.4883 36.0109 42.4883 37.2V41.3402C42.4883 42.5292 41.5246 43.4929 40.3356 43.4929H36.1954C35.0063 43.4929 34.0426 42.5292 34.0426 41.3402V37.2ZM168.607 27.3984H150.463C148.919 27.3984 147.663 28.6543 147.663 30.1984V48.3421C147.663 49.8862 148.919 51.1421 150.463 51.1421H168.607C170.151 51.1421 171.407 49.8862 171.407 48.3421V30.1984C171.407 28.6547 170.151 27.3984 168.607 27.3984ZM163.758 41.3406C163.758 42.5296 162.794 43.4933 161.605 43.4933H157.465C156.276 43.4933 155.312 42.5296 155.312 41.3406V37.2C155.312 36.0109 156.276 35.0472 157.465 35.0472H161.605C162.794 35.0472 163.758 36.0109 163.758 37.2V41.3406Z" fill="#D9D2B0"/>
<path d="M174.029 10.2617H24.9073C15.9265 10.2617 8.64648 17.5422 8.64648 26.5226V175.645C8.64648 184.625 15.9269 191.905 24.9073 191.905H174.029C183.01 191.905 190.29 184.625 190.29 175.645V26.5226C190.29 17.5422 183.01 10.2617 174.029 10.2617ZM20.0003 30.1976C20.0003 25.1284 24.1241 21.0042 29.1937 21.0042H47.3373C52.4064 21.0042 56.5306 25.1281 56.5306 30.1976V48.3412C56.5306 53.4103 52.4068 57.5345 47.3373 57.5345H29.1937C24.1245 57.5345 20.0003 53.4107 20.0003 48.3412V30.1976ZM19.8941 67.02H66.5454V21.0046H128.401V27.398H72.9388V73.4134H19.8941V67.02ZM128.401 36.0729V42.4663H118.682V36.0729H128.401ZM68.7013 110.131V116.524H39.2917V101.084H45.685V110.131H68.7013ZM52.8908 90.1457V83.7524H88.211V100.151H81.8176V90.1453L52.8908 90.1457ZM88.9051 57.7935V73.9911H82.5118V57.7935H88.9051ZM82.5118 47.2362V39.2694H88.9051V47.2362H82.5118ZM81.818 113.328H88.2113V127.486H108.617V133.879H81.818V113.328ZM102.777 107.206V113.328H96.3832V107.206H102.777ZM96.3832 93.1969V57.7935H102.777V93.1969H96.3832ZM99.4679 42.4663V36.0729H109.187V42.4663H99.4679ZM34.0425 83.7524V90.1457H26.3937V102.048H20.0003V83.7524H34.0425ZM19.8941 110.131H28.6198V116.524H19.8941V110.131ZM19.8941 127.486H72.7763V133.879H19.8941V127.486ZM68.7013 160.745H94.8992V167.138H68.7013V160.745ZM56.5302 171.96C56.5302 177.029 52.4064 181.153 47.3369 181.153H29.1937C24.1245 181.153 20.0003 177.029 20.0003 171.96V153.816C20.0003 148.747 24.1241 144.623 29.1937 144.623H47.3373C52.4064 144.623 56.5306 148.747 56.5306 153.816L56.5302 171.96ZM111.813 181.153H68.7013V174.759H105.42V151.016H68.7013V144.622H111.813V181.153ZM114.908 70.7942H128.401V77.1876H114.908V70.7942ZM121.879 86.9489V98.4918H115.486V86.9489H121.879ZM115.486 108.155H121.879V119.753H115.486V108.155ZM151.992 133.879H115.851V127.486H151.992V133.879ZM174.603 133.879H164.884V127.486H174.603V133.879ZM174.603 120.342H141.27V83.7524H162.731V103.609H156.338V90.1453H147.663V113.949H174.603V120.342H174.603ZM174.603 77.1876H140.577V70.7942H174.603V77.1876ZM177.8 48.3412C177.8 53.4103 173.676 57.5345 168.606 57.5345H150.463C145.394 57.5345 141.269 53.4107 141.269 48.3412V30.1976C141.269 25.1284 145.393 21.0042 150.463 21.0042H168.606C173.675 21.0042 177.8 25.1281 177.8 30.1976V48.3412Z" fill="#D9D2B0"/>
</svg>
